<?xml version="1.0" encoding="UTF-8" standalone="no"?>
<svg
   version="1.1"
   width="4527.2461"
   height="973.58203"
   style="clip-rule:evenodd;fill-rule:evenodd;image-rendering:optimizeQuality;shape-rendering:geometricPrecision;text-rendering:geometricPrecision"
   id="svg81"
   sodipodi:docname="MekongBlock_logo_final_Artboard 1.svg"
   inkscape:version="1.4 (e7c3feb1, 2024-10-09)"
   xmlns:inkscape="http://www.inkscape.org/namespaces/inkscape"
   xmlns:sodipodi="http://sodipodi.sourceforge.net/DTD/sodipodi-0.dtd"
   xmlns="http://www.w3.org/2000/svg"
   xmlns:svg="http://www.w3.org/2000/svg">
  <defs
     id="defs81" />
  <sodipodi:namedview
     id="namedview81"
     pagecolor="#ffffff"
     bordercolor="#666666"
     borderopacity="1.0"
     inkscape:showpageshadow="2"
     inkscape:pageopacity="0.0"
     inkscape:pagecheckerboard="0"
     inkscape:deskcolor="#d1d1d1"
     inkscape:zoom="0.20175965"
     inkscape:cx="2213.0292"
     inkscape:cy="567.50694"
     inkscape:window-width="1952"
     inkscape:window-height="1092"
     inkscape:window-x="2967"
     inkscape:window-y="119"
     inkscape:window-maximized="0"
     inkscape:current-layer="svg81" />
  <g
     id="g84"
     transform="translate(-289.89595,-1933.866)">
    <g
       id="g83"
       transform="matrix(0.34136162,0,0,0.34136162,-137.2963,1717.002)">
      <g
         id="g1"
         style="opacity:0.89">
        <path
           style="opacity:0.999"
           fill="#1d86d9"
           d="m 3769.5,1700.5 c -44.33,78 -106.33,137.67 -186,179 -13.86,6.76 -27.52,13.76 -41,21 -43.4,-6.49 -87.07,-9.16 -131,-8 0,-7 0,-14 0,-21 0.61,-40 0.95,-80 1,-120 54.81,-32.57 109.81,-64.91 165,-97 1.17,-70 1.33,-140 0.5,-210 -0.38,-0.56 -0.88,-0.89 -1.5,-1 -59.41,-33.12 -118.91,-66.12 -178.5,-99 -58.46,32.48 -116.96,64.81 -175.5,97 -176.72,-102.7 -353.72,-205.03 -531,-307 -1,-68.6 -1.33,-137.262 -1,-206 -59.61,-34.146 -119.61,-67.813 -180,-101 -59.89,33.108 -119.56,66.441 -179,100 -1,70.165 -1.33,140.5 -1,211 -176.33,101.16 -352.33,202.83 -528,305 -59.88,-32.86 -119.71,-65.86 -179.5,-99 -59.59,32.88 -119.09,65.88 -178.5,99 -0.62,0.11 -1.12,0.44 -1.5,1 -0.83,70 -0.67,140 0.5,210 57.3,33.47 114.46,67.13 171.5,101 0.17,9.84 0.67,19.51 1.5,29 0.16,26.67 0.49,53.34 1,80 -0.77,-0.76 -1.27,-1.76 -1.5,-3 -9.48,5.32 -18.65,10.98 -27.5,17 -16.53,8.88 -32.53,18.55 -48,29 -44.82,4.69 -88.49,14.53 -131,29.5 -54.46,20.56 -106.79,45.4 -157,74.5 -0.33,0 -0.67,0 -1,0 -0.17,-196.33 0,-392.67 0.5,-589 7.15,-62.18 37.31,-109.34 90.5,-141.5 360.5,-207.75 720.83,-415.747 1081,-624 47.32,-24.151 96.32,-28.151 147,-12 10,3.557 19.67,7.891 29,13 359.5,207.919 719.17,415.59 1079,623 50.04,29.87 79.88,73.7 89.5,131.5 1.48,95.98 1.98,191.98 1.5,288 z"
           id="path1" />
      </g>
      <g
         id="g2"
         style="opacity:0.89">
        <path
           style="opacity:1"
           fill="#97dffe"
           d="m 2690.5,928.5 c -59.97,34.986 -119.97,69.986 -180,105 -60.17,-34.581 -119.84,-69.914 -179,-106 59.44,-33.559 119.11,-66.892 179,-100 60.39,33.187 120.39,66.854 180,101 z"
           id="path2" />
      </g>
      <g
         id="g3"
         style="opacity:0.89">
        <path
           style="opacity:1"
           fill="#30c1fe"
           d="m 2331.5,927.5 c 59.16,36.086 118.83,71.419 179,106 0,69.67 0,139.33 0,209 -55.52,-31.68 -110.69,-64.01 -165.5,-97 -0.38,0.56 -0.88,0.89 -1.5,1 -0.44,-1.57 -1.44,-2.74 -3,-3.5 -3.04,-2.22 -6.37,-3.72 -10,-4.5 -0.33,-70.5 0,-140.835 1,-211 z"
           id="path3" />
      </g>
      <g
         id="g4"
         style="opacity:0.89">
        <path
           style="opacity:1"
           fill="#6ed3fe"
           d="m 2690.5,928.5 c -0.33,68.738 0,137.4 1,206 -0.77,0.76 -1.27,1.76 -1.5,3 -2.91,1.68 -5.41,3.68 -7.5,6 -2.52,0.26 -4.85,1.09 -7,2.5 -54.73,32.69 -109.73,64.86 -165,96.5 0,-69.67 0,-139.33 0,-209 60.03,-35.014 120.03,-70.014 180,-105 z"
           id="path4" />
      </g>
      <g
         id="g5"
         style="opacity:0.89">
        <path
           style="opacity:1"
           fill="#47e0fe"
           d="m 2691.5,1134.5 c 177.28,101.97 354.28,204.3 531,307 -1.33,1 -2.67,2 -4,3 -0.67,2.67 -1.33,5.33 -2,8 -178.3,-102.48 -356.3,-205.48 -534,-309 2.09,-2.32 4.59,-4.32 7.5,-6 0.23,-1.24 0.73,-2.24 1.5,-3 z"
           id="path5" />
      </g>
      <g
         id="g6"
         style="opacity:0.89">
        <path
           style="opacity:1"
           fill="#47e0fe"
           d="m 2330.5,1138.5 c 3.63,0.78 6.96,2.28 10,4.5 1.56,0.76 2.56,1.93 3,3.5 -179.72,103.71 -359.72,207.04 -540,310 0.32,-4.2 -0.02,-8.2 -1,-12 0,-0.33 0,-0.67 0,-1 175.67,-102.17 351.67,-203.84 528,-305 z"
           id="path6" />
      </g>
      <g
         id="g7"
         style="opacity:0.89">
        <path
           style="opacity:1"
           fill="#1d86d9"
           d="m 2682.5,1143.5 c 177.7,103.52 355.7,206.52 534,309 1.33,65.67 1.33,131.33 0,197 -126.17,75.25 -252.5,150.25 -379,225 -85.09,-27.44 -169.09,-57.94 -252,-91.5 -85.31,-32.06 -172.97,-55.4 -263,-70 -119.1,-18.7 -237.77,-16.37 -356,7 -11.54,2.52 -22.87,5.36 -34,8.5 -43,-26 -86,-52 -129,-78 0,-64.67 0,-129.33 0,-194 180.28,-102.96 360.28,-206.29 540,-310 0.62,-0.11 1.12,-0.44 1.5,-1 54.81,32.99 109.98,65.32 165.5,97 55.27,-31.64 110.27,-63.81 165,-96.5 2.15,-1.41 4.48,-2.24 7,-2.5 z"
           id="path7" />
      </g>
      <g
         id="g8"
         style="opacity:0.89">
        <path
           style="opacity:1"
           fill="#97dffe"
           d="m 1802.5,1443.5 c 0,0.33 0,0.67 0,1 -49.77,30.06 -99.77,59.89 -150,89.5 -9.89,5.78 -19.89,11.28 -30,16.5 -58.97,-34.82 -117.97,-69.66 -177,-104.5 -0.75,-0.67 -1.09,-1.5 -1,-2.5 59.41,-33.12 118.91,-66.12 178.5,-99 59.79,33.14 119.62,66.14 179.5,99 z"
           id="path8" />
      </g>
      <g
         id="g9"
         style="opacity:0.89">
        <path
           style="opacity:1"
           fill="#97dffe"
           d="m 3576.5,1443.5 c -0.53,2.12 -1.86,3.62 -4,4.5 -58.06,34.69 -116.39,68.86 -175,102.5 -59.87,-35.1 -119.53,-70.43 -179,-106 1.33,-1 2.67,-2 4,-3 58.54,-32.19 117.04,-64.52 175.5,-97 59.59,32.88 119.09,65.88 178.5,99 z"
           id="path9" />
      </g>
      <g
         id="g10"
         style="opacity:0.89">
        <path
           style="opacity:1"
           fill="#30c0fe"
           d="m 1444.5,1443.5 c -0.09,1 0.25,1.83 1,2.5 59.03,34.84 118.03,69.68 177,104.5 0,0.33 0,0.67 0,1 0.33,69.17 0,138.17 -1,207 -1.31,-0.65 -2.64,-1.32 -4,-2 -1,9.31 -1.33,18.64 -1,28 -0.83,-9.49 -1.33,-19.16 -1.5,-29 -57.04,-33.87 -114.2,-67.53 -171.5,-101 -1.17,-70 -1.33,-140 -0.5,-210 0.38,-0.56 0.88,-0.89 1.5,-1 z"
           id="path10" />
      </g>
      <g
         id="g11"
         style="opacity:0.89">
        <path
           style="opacity:1"
           fill="#6ed3fe"
           d="m 1802.5,1444.5 c 0.98,3.8 1.32,7.8 1,12 0,64.67 0,129.33 0,194 0.26,1.48 -0.07,2.81 -1,4 -2.73,1.69 -5.4,3.36 -8,5 -55.78,32.39 -111.44,65.06 -167,98 -0.67,4.48 -1.33,8.82 -2,13 0.17,-4.01 0,-8.01 -0.5,-12 -0.38,0.56 -0.88,0.89 -1.5,1 0.33,-69.5 0,-138.84 -1,-208 0,-0.33 0,-0.67 0,-1 10.11,-5.22 20.11,-10.72 30,-16.5 50.23,-29.61 100.23,-59.44 150,-89.5 z"
           id="path11" />
      </g>
      <g
         id="g12"
         style="opacity:0.89">
        <path
           style="opacity:1"
           fill="#30c0fe"
           d="m 3218.5,1444.5 c 59.47,35.57 119.13,70.9 179,106 0,69.67 0,139.33 0,209 -57.22,-33.53 -114.39,-67.2 -171.5,-101 -0.38,0.56 -0.88,0.89 -1.5,1 -1.32,-2.31 -3.32,-3.98 -6,-5 -0.67,-1.79 -1.34,-3.46 -2,-5 1.33,-65.67 1.33,-131.33 0,-197 0.67,-2.67 1.33,-5.33 2,-8 z"
           id="path12" />
      </g>
      <g
         id="g13"
         style="opacity:0.89">
        <path
           style="opacity:1"
           fill="#6ed3fe"
           d="m 3576.5,1443.5 c 0.62,0.11 1.12,0.44 1.5,1 0.83,70 0.67,140 -0.5,210 -55.19,32.09 -110.19,64.43 -165,97 -3.62,1.64 -6.95,3.64 -10,6 -1.67,0.67 -3.33,1.33 -5,2 0,-69.67 0,-139.33 0,-209 58.61,-33.64 116.94,-67.81 175,-102.5 2.14,-0.88 3.47,-2.38 4,-4.5 z"
           id="path13" />
      </g>
      <g
         id="g14"
         style="opacity:0.89">
        <path
           style="opacity:1"
           fill="#52ceff"
           d="m 1622.5,1551.5 c 1,69.16 1.33,138.5 1,208 -0.99,0.17 -1.66,-0.16 -2,-1 1,-68.83 1.33,-137.83 1,-207 z"
           id="path14" />
      </g>
      <g
         id="g15"
         style="opacity:0.89">
        <path
           style="opacity:1"
           fill="#46defd"
           d="m 3216.5,1649.5 c 0.66,1.54 1.33,3.21 2,5 2.68,1.02 4.68,2.69 6,5 -127.03,71.84 -253.69,144.18 -380,217 -10.47,5.4 -20.8,11.07 -31,17 -25.61,14.3 -50.95,28.97 -76,44 -6.67,3.33 -13.33,6.67 -20,10 4.29,-3.49 8.96,-6.49 14,-9 26.04,-15.68 52.04,-31.35 78,-47 9.7,-5.18 19.04,-10.85 28,-17 126.5,-74.75 252.83,-149.75 379,-225 z"
           id="path15" />
      </g>
      <g
         id="g16"
         style="opacity:0.89">
        <path
           style="opacity:1"
           fill="#5aeefe"
           d="m 1803.5,1650.5 c 43,26 86,52 129,78 10.68,6.36 21.35,12.69 32,19 100.33,61.33 200.67,122.67 301,184 -0.67,0 -1,0.33 -1,1 -104.67,-60.67 -209.33,-121.33 -314,-182 -10.17,-6.25 -20.5,-12.25 -31,-18 -41.8,-24.07 -83.46,-48.4 -125,-73 2.6,-1.64 5.27,-3.31 8,-5 0.93,-1.19 1.26,-2.52 1,-4 z"
           id="path16" />
      </g>
      <g
         id="g17"
         style="opacity:0.89">
        <path
           style="opacity:1"
           fill="#1d86d9"
           d="m 3397.5,1759.5 c 1.67,-0.67 3.33,-1.33 5,-2 0.11,40 0.44,80 1,120 0,5 0,10 0,15 -87.43,5.36 -172.1,23.36 -254,54 -17.57,-2.89 -35.23,-5.89 -53,-9 -85.51,-14.38 -169.51,-34.71 -252,-61 126.31,-72.82 252.97,-145.16 380,-217 0.62,-0.11 1.12,-0.44 1.5,-1 57.11,33.8 114.28,67.47 171.5,101 z"
           id="path17" />
      </g>
      <g
         id="g18"
         style="opacity:0.89">
        <path
           style="opacity:1"
           fill="#1d86d9"
           d="m 1794.5,1659.5 c 41.54,24.6 83.2,48.93 125,73 -26.81,5.54 -53.14,13.04 -79,22.5 -74.66,27.25 -146.16,61.08 -214.5,101.5 -0.17,5.52 -0.67,10.85 -1.5,16 0.7,-34 1.03,-68 1,-102 0.67,-4.18 1.33,-8.52 2,-13 55.56,-32.94 111.22,-65.61 167,-98 z"
           id="path18" />
      </g>
      <g
         id="g19"
         style="opacity:0.89">
        <path
           style="opacity:1"
           fill="#1774ce"
           d="m 2837.5,1874.5 c -8.96,6.15 -18.3,11.82 -28,17 -2.03,0.16 -4.03,0 -6,-0.5 -67.69,-22.9 -134.69,-47.56 -201,-74 -97.03,-37.59 -197.03,-63.92 -300,-79 -113.23,-15.46 -225.9,-12.29 -338,9.5 -10.65,-6.31 -21.32,-12.64 -32,-19 11.13,-3.14 22.46,-5.98 34,-8.5 118.23,-23.37 236.9,-25.7 356,-7 90.03,14.6 177.69,37.94 263,70 82.91,33.56 166.91,64.06 252,91.5 z"
           id="path19" />
      </g>
      <g
         id="g20"
         style="opacity:0.89">
        <path
           style="opacity:1"
           fill="#1774ce"
           d="m 3769.5,1700.5 c 0,9.33 0,18.67 0,28 -37.33,64.99 -87.66,117.66 -151,158 -11.86,-1.97 -23.53,-4.31 -35,-7 79.67,-41.33 141.67,-101 186,-179 z"
           id="path20" />
      </g>
      <g
         id="g21"
         style="opacity:0.89">
        <path
           style="opacity:1"
           fill="#1b9cf0"
           d="m 2809.5,1891.5 c -25.96,15.65 -51.96,31.32 -78,47 -105.57,-17.6 -206.9,-3.44 -304,42.5 -42.26,20.45 -82.92,43.45 -122,69 -40.43,26.96 -80.93,53.8 -121.5,80.5 -32.83,-13.33 -64.99,-28.16 -96.5,-44.5 -64.99,-35.83 -129.66,-72.16 -194,-109 -52.31,-28.99 -106.65,-53.33 -163,-73 -14.01,-4 -28.01,-8 -42,-12 -19.29,-3.75 -38.29,-7.58 -57,-11.5 76.54,-44.36 156.87,-80.52 241,-108.5 25.91,-7.81 51.91,-14.98 78,-21.5 104.67,60.67 209.33,121.33 314,182 12.07,7.39 24.4,14.39 37,21 -11.66,-7.83 -23.66,-15.17 -36,-22 -100.33,-61.33 -200.67,-122.67 -301,-184 112.1,-21.79 224.77,-24.96 338,-9.5 102.97,15.08 202.97,41.41 300,79 66.31,26.44 133.31,51.1 201,74 1.97,0.5 3.97,0.66 6,0.5 z"
           id="path21" />
      </g>
      <g
         id="g22"
         style="opacity:0.89">
        <path
           style="opacity:1"
           fill="#1a9bf0"
           d="m 3769.5,1728.5 c 0,68.33 0,136.67 0,205 -49.36,-18.56 -99.69,-33.9 -151,-46 0,-0.33 0,-0.67 0,-1 63.34,-40.34 113.67,-93.01 151,-158 z"
           id="path22" />
      </g>
      <g
         id="g23"
         style="opacity:0.89">
        <path
           style="opacity:1"
           fill="#1774ce"
           d="m 1919.5,1732.5 c 10.5,5.75 20.83,11.75 31,18 -26.09,6.52 -52.09,13.69 -78,21.5 -84.13,27.98 -164.46,64.14 -241,108.5 -2.22,0.87 -4.55,1.2 -7,1 0,-3 0,-6 0,-9 0.83,-5.15 1.33,-10.48 1.5,-16 68.34,-40.42 139.84,-74.25 214.5,-101.5 25.86,-9.46 52.19,-16.96 79,-22.5 z"
           id="path23" />
      </g>
      <g
         id="g24"
         style="opacity:0.89">
        <path
           style="opacity:1"
           fill="#1774ce"
           d="m 1617.5,1864.5 c 0,5 0,10 0,15 0,0.33 0,0.67 0,1 -9.63,-1.02 -19.3,-1.69 -29,-2 8.85,-6.02 18.02,-11.68 27.5,-17 0.23,1.24 0.73,2.24 1.5,3 z"
           id="path24" />
      </g>
      <g
         id="g25"
         style="opacity:0.89">
        <path
           style="opacity:1"
           fill="#1a7fd5"
           d="m 1588.5,1878.5 c 9.7,0.31 19.37,0.98 29,2 0,2.67 0,5.33 0,8 -9.47,5.24 -18.8,10.74 -28,16.5 -10.18,0.17 -20.18,0.67 -30,1.5 -6.38,-0.21 -12.71,0.13 -19,1 15.47,-10.45 31.47,-20.12 48,-29 z"
           id="path25" />
      </g>
      <g
         id="g26"
         style="opacity:0.89">
        <path
           style="opacity:1"
           fill="#1b7fd5"
           d="m 3583.5,1879.5 c 11.47,2.69 23.14,5.03 35,7 0,0.33 0,0.67 0,1 -10.95,6.14 -21.95,12.31 -33,18.5 -1.63,0.49 -3.3,0.66 -5,0.5 -12.59,-2.43 -25.25,-4.43 -38,-6 13.48,-7.24 27.14,-14.24 41,-21 z"
           id="path26" />
      </g>
      <g
         id="g27"
         style="opacity:0.89">
        <path
           style="opacity:1"
           fill="#1c8fe3"
           d="m 3618.5,1887.5 c 51.31,12.1 101.64,27.44 151,46 0,9 0,18 0,27 -61.68,-23.17 -124.68,-41.17 -189,-54 1.7,0.16 3.37,-0.01 5,-0.5 11.05,-6.19 22.05,-12.36 33,-18.5 z"
           id="path27" />
      </g>
      <g
         id="g28"
         style="opacity:0.89">
        <path
           style="opacity:1"
           fill="#1e91e3"
           d="m 1617.5,1888.5 c 0,6.33 0,12.67 0,19 -19.32,-0.86 -38.65,-1.19 -58,-1 9.82,-0.83 19.82,-1.33 30,-1.5 9.2,-5.76 18.53,-11.26 28,-16.5 z"
           id="path28" />
      </g>
      <g
         id="g29"
         style="opacity:0.89">
        <path
           style="opacity:1"
           fill="#37c5f8"
           d="m 3411.5,1871.5 c 0,7 0,14 0,21 43.93,-1.16 87.6,1.51 131,8 12.75,1.57 25.41,3.57 38,6 64.32,12.83 127.32,30.83 189,54 0,82 0,164 0,246 -120.82,27.11 -240.49,22.78 -359,-13 -2.72,-107.5 -2.38,-214.84 1,-322 z"
           id="path29" />
      </g>
      <g
         id="g30"
         style="opacity:0.89">
        <path
           style="opacity:1"
           fill="#37c5f8"
           d="m 1617.5,1879.5 c 1.09,58.5 2.09,117.17 3,176 -0.69,44 -1.36,88 -2,132 -29.6,-13.04 -59.93,-24.2 -91,-33.5 -38.63,-10.59 -77.63,-12.26 -117,-5 -25.6,6.97 -49.27,17.97 -71,33 -30.69,23.85 -59.35,50.01 -86,78.5 -1,-82.83 -1.33,-165.83 -1,-249 50.21,-29.1 102.54,-53.94 157,-74.5 42.51,-14.97 86.18,-24.81 131,-29.5 6.29,-0.87 12.62,-1.21 19,-1 19.35,-0.19 38.68,0.14 58,1 0,-6.33 0,-12.67 0,-19 0,-2.67 0,-5.33 0,-8 0,-0.33 0,-0.67 0,-1 z"
           id="path30" />
      </g>
      <g
         id="g31"
         style="opacity:0.89">
        <path
           style="opacity:1"
           fill="#47e1fe"
           d="m 3412.5,1751.5 c -0.05,40 -0.39,80 -1,120 -3.38,107.16 -3.72,214.5 -1,322 0,12 0,24 0,36 43.24,12.48 87.24,21.32 132,26.5 76.4,7.03 152.06,2.53 227,-13.5 0,83.33 0,166.67 0,250 -11.46,0.4 -22.96,0.4 -34.5,0 -8.35,0.6 -16.69,1.27 -25,2 -12.91,-2.32 -25.91,-3.99 -39,-5 -1.44,0.06 -2.77,0.39 -4,1 -6.6,-2.95 -13.43,-4.29 -20.5,-4 -13.75,-4.57 -27.41,-9.4 -41,-14.5 -7.61,-5.93 -15.94,-10.6 -25,-14 -7.84,-6.75 -16.17,-12.75 -25,-18 -27.19,-23.51 -53.52,-48.18 -79,-74 -19.72,-17.72 -39.38,-35.39 -59,-53 -1.83,-0.27 -3.33,-1.11 -4.5,-2.5 -0.5,10.66 -0.67,21.33 -0.5,32 -0.33,12.51 0,24.84 1,37 0,3.33 0,6.67 0,10 -4.16,-1.24 -7.82,-3.24 -11,-6 0,-11.67 0,-23.33 0,-35 0.31,-5.93 -0.03,-11.76 -1,-17.5 -24.73,-23.41 -51.73,-43.74 -81,-61 -67.57,-36.19 -139.74,-53.69 -216.5,-52.5 -89.47,1.44 -175.63,18.94 -258.5,52.5 125.2,69.77 250.53,139.27 376,208.5 -0.67,1.33 -1.67,2.33 -3,3 -0.67,3 -1.33,6 -2,9 -125.36,-72.68 -250.69,-145.35 -376,-218 -4.38,-3.28 -9.22,-5.95 -14.5,-8 -49.52,17.85 -97.68,38.52 -144.5,62 -33.17,13.99 -66,29.66 -98.5,47 -0.33,-0.33 -0.67,-0.67 -1,-1 -46.86,22.34 -94.36,43.51 -142.5,63.5 -17.24,4.64 -34.08,10.47 -50.5,17.5 -0.33,-0.33 -0.67,-0.67 -1,-1 -15.92,4.53 -31.76,9.53 -47.5,15 -0.67,-0.33 -1.33,-0.67 -2,-1 -14.65,3.5 -29.32,7 -44,10.5 -17.09,1.39 -33.93,3.89 -50.5,7.5 -2.12,-0.56 -4.29,-0.9 -6.5,-1 -15.05,0.45 -30.05,1.45 -45,3 -15.13,-2.75 -30.29,-3.75 -45.5,-3 -15.22,-4.44 -30.55,-7.44 -46,-9 -6.35,-3.09 -13.02,-5.43 -20,-7 -0.77,0.14 -1.44,0.48 -2,1 -13.04,-6.35 -26.54,-11.51 -40.5,-15.5 -12.16,-6.74 -24.82,-12.41 -38,-17 -18.55,-10.94 -37.55,-20.77 -57,-29.5 116.23,-71.03 232.9,-141.53 350,-211.5 1.2,-0.65 1.2,-1.15 0,-1.5 -125.72,71.85 -251.06,144.19 -376,217 -0.33,0 -0.67,0 -1,0 -50.34,-28 -102.34,-52.5 -156,-73.5 -43.19,-16.15 -87.86,-24.32 -134,-24.5 0,23.67 0,47.33 0,71 -1.03,-0.86 -2.2,-1.52 -3.5,-2 -2.43,1.47 -4.93,2.8 -7.5,4 0.08,-24.34 0.41,-48.67 1,-73 -53.41,2.46 -105.08,13.29 -155,32.5 -39.35,15.34 -77.68,33.01 -115,53 -32.02,17.34 -63.68,35.17 -95,53.5 0,-51.33 0,-102.67 0,-154 18.83,-18.66 37.83,-37.16 57,-55.5 22.32,-20.3 47.32,-36.63 75,-49 31.93,-12.51 64.93,-16.51 99,-12 23.62,2.66 46.62,7.99 69,16 22.36,7.69 44.36,16.19 66,25.5 0.89,-11.64 1.22,-23.31 1,-35 0.64,-44 1.31,-88 2,-132 -0.91,-58.83 -1.91,-117.5 -3,-176 0,-5 0,-10 0,-15 -0.51,-26.66 -0.84,-53.33 -1,-80 -0.33,-9.36 0,-18.69 1,-28 1.36,0.68 2.69,1.35 4,2 0.34,0.84 1.01,1.17 2,1 0.62,-0.11 1.12,-0.44 1.5,-1 0.5,3.99 0.67,7.99 0.5,12 0.03,34 -0.3,68 -1,102 0,3 0,6 0,9 0,2 0,4 0,6 -0.96,56.34 -1.96,112.84 -3,169.5 0.89,50 1.89,99.83 3,149.5 -0.33,6.7 0,13.37 1,20 43.19,20.26 87.53,37.76 133,52.5 49.73,13.54 100.06,16.21 151,8 50.8,-9.04 99.46,-24.71 146,-47 47.91,-23.17 93.57,-49.67 137,-79.5 42.51,-28.34 85.18,-56.5 128,-84.5 50.89,-33.11 104.89,-60.44 162,-82 74.96,-25.28 151.63,-33.28 230,-24 70.43,8.52 138.76,25.36 205,50.5 10,3.67 20,7.33 30,11 28.77,11.65 57.44,23.82 86,36.5 71.85,34.26 143.85,67.93 216,101 50.23,22.35 101.56,41.85 154,58.5 1,-11.98 1.33,-23.98 1,-36 2.7,-104.84 2.37,-209.5 -1,-314 -0.56,-40 -0.89,-80 -1,-120 3.05,-2.36 6.38,-4.36 10,-6 z"
           id="path31" />
      </g>
      <g
         id="g32"
         style="opacity:0.89">
        <path
           style="opacity:1"
           fill="#1c8fe3"
           d="m 3051.5,1957.5 c 0.67,0 1.33,0 2,0 14.84,3.42 29.84,6.09 45,8 -36.5,15.06 -72.84,30.73 -109,47 -0.33,0 -0.67,0 -1,0 -10,-4 -20,-8 -30,-12 30.88,-14.61 61.88,-28.94 93,-43 z"
           id="path32" />
      </g>
      <g
         id="g33"
         style="opacity:0.89">
        <path
           style="opacity:1"
           fill="#1b7fd5"
           d="m 3096.5,1937.5 c 17.77,3.11 35.43,6.11 53,9 -17.11,6.06 -34.11,12.39 -51,19 -15.16,-1.91 -30.16,-4.58 -45,-8 14.44,-6.43 29.11,-12.6 44,-18.5 -0.56,-0.38 -0.89,-0.88 -1,-1.5 z"
           id="path33" />
      </g>
      <g
         id="g34"
         style="opacity:0.89">
        <path
           style="opacity:1"
           fill="#37c5f8"
           d="m 1624.5,1887.5 c 0,7 0,14 0,21 62.67,7.84 122.67,25 180,51.5 31.92,14.63 63.26,30.29 94,47 58.17,33.25 116.5,66.25 175,99 27.32,14.83 55.32,28.33 84,40.5 -58.11,39.22 -120.78,69.72 -188,91.5 -51.9,16.17 -104.9,21.51 -159,16 -34.76,-4.92 -68.43,-13.92 -101,-27 -28.43,-11.59 -56.6,-23.75 -84.5,-36.5 -0.5,5.32 -0.67,10.66 -0.5,16 -1.11,-49.67 -2.11,-99.5 -3,-149.5 1.04,-56.66 2.04,-113.16 3,-169.5 z"
           id="path34" />
      </g>
      <g
         id="g35"
         style="opacity:0.89">
        <path
           style="opacity:1"
           fill="#1b9bf0"
           d="m 2813.5,1893.5 c 77.75,26.8 157.08,48.13 238,64 -31.12,14.06 -62.12,28.39 -93,43 -0.67,0 -1.33,0 -2,0 -70.38,-29.69 -143.38,-50.69 -219,-63 25.05,-15.03 50.39,-29.7 76,-44 z"
           id="path35" />
      </g>
      <g
         id="g36"
         style="opacity:0.89">
        <path
           style="opacity:1"
           fill="#37c5f8"
           d="m 3403.5,1877.5 c 3.37,104.5 3.7,209.16 1,314 -50.13,-15.1 -99.13,-33.27 -147,-54.5 -71.03,-32.52 -141.7,-65.52 -212,-99 -19.05,-8.05 -37.71,-16.55 -56,-25.5 36.16,-16.27 72.5,-31.94 109,-47 16.89,-6.61 33.89,-12.94 51,-19 81.9,-30.64 166.57,-48.64 254,-54 0,-5 0,-10 0,-15 z"
           id="path36" />
      </g>
      <g
         id="g37"
         style="opacity:0.89">
        <path
           style="opacity:1"
           fill="#1c8fe3"
           d="m 1631.5,1880.5 c 18.71,3.92 37.71,7.75 57,11.5 13.99,4 27.99,8 42,12 56.35,19.67 110.69,44.01 163,73 64.34,36.84 129.01,73.17 194,109 31.51,16.34 63.67,31.17 96.5,44.5 40.57,-26.7 81.07,-53.54 121.5,-80.5 39.08,-25.55 79.74,-48.55 122,-69 97.1,-45.94 198.43,-60.1 304,-42.5 -5.04,2.51 -9.71,5.51 -14,9 6.67,-3.33 13.33,-6.67 20,-10 75.62,12.31 148.62,33.31 219,63 -12.33,6.5 -25,12.5 -38,18 -0.8,0.46 -1.13,1.12 -1,2 -66.24,-25.14 -134.57,-41.98 -205,-50.5 -78.37,-9.28 -155.04,-1.28 -230,24 -57.11,21.56 -111.11,48.89 -162,82 -42.82,28 -85.49,56.16 -128,84.5 -11.98,-3.82 -23.65,-8.49 -35,-14 -28.68,-12.17 -56.68,-25.67 -84,-40.5 -58.5,-32.75 -116.83,-65.75 -175,-99 -30.74,-16.71 -62.08,-32.37 -94,-47 -57.33,-26.5 -117.33,-43.66 -180,-51.5 0,-7 0,-14 0,-21 0,-2 0,-4 0,-6 2.45,0.2 4.78,-0.13 7,-1 z"
           id="path37" />
      </g>
      <g
         id="g38"
         style="opacity:0.89">
        <path
           style="opacity:1"
           fill="#34bbf2"
           d="m 2705.5,1954.5 c -3.44,3.3 -7.44,5.46 -12,6.5 3.66,-2.83 7.66,-4.99 12,-6.5 z"
           id="path38" />
      </g>
      <g
         id="g39"
         style="opacity:0.89">
        <path
           style="opacity:1"
           fill="#42d0f9"
           d="m 2306.5,1956.5 c 1.92,0.29 3.59,1.13 5,2.5 -2.17,0.25 -3.83,-0.58 -5,-2.5 z"
           id="path39" />
      </g>
      <g
         id="g40"
         style="opacity:0.89">
        <path
           style="opacity:1"
           fill="#46d6fa"
           d="m 2301.5,1953.5 c 2.17,0.25 3.84,1.25 5,3 -2.17,-0.25 -3.84,-1.25 -5,-3 z"
           id="path40" />
      </g>
      <g
         id="g41"
         style="opacity:0.89">
        <path
           style="opacity:1"
           fill="#3ac7f6"
           d="m 2717.5,1947.5 c -3.48,3.12 -7.48,5.46 -12,7 3.48,-3.12 7.48,-5.46 12,-7 z"
           id="path41" />
      </g>
      <g
         id="g42"
         style="opacity:0.89">
        <path
           style="opacity:1"
           fill="#50e3fc"
           d="m 2265.5,1931.5 c 12.34,6.83 24.34,14.17 36,22 -12.6,-6.61 -24.93,-13.61 -37,-21 0,-0.67 0.33,-1 1,-1 z"
           id="path42" />
      </g>
      <g
         id="g43"
         style="opacity:0.89">
        <path
           style="opacity:1"
           fill="#1774ce"
           d="m 2844.5,1876.5 c 82.49,26.29 166.49,46.62 252,61 0.11,0.62 0.44,1.12 1,1.5 -14.89,5.9 -29.56,12.07 -44,18.5 -0.67,0 -1.33,0 -2,0 -80.92,-15.87 -160.25,-37.2 -238,-64 10.2,-5.93 20.53,-11.6 31,-17 z"
           id="path43" />
      </g>
      <g
         id="g44"
         style="opacity:0.89">
        <path
           style="opacity:1"
           fill="#1d8add"
           d="m 2956.5,2000.5 c 0.67,0 1.33,0 2,0 10,4 20,8 30,12 -13.22,7.11 -26.88,13.44 -41,19 -10,-3.67 -20,-7.33 -30,-11 -0.13,-0.88 0.2,-1.54 1,-2 13,-5.5 25.67,-11.5 38,-18 z"
           id="path44" />
      </g>
      <g
         id="g45"
         style="opacity:0.89">
        <path
           style="opacity:1"
           fill="#28a0e6"
           d="m 2988.5,2012.5 c 0.33,0 0.67,0 1,0 18.29,8.95 36.95,17.45 56,25.5 70.3,33.48 140.97,66.48 212,99 47.87,21.23 96.87,39.4 147,54.5 0.33,12.02 0,24.02 -1,36 -52.44,-16.65 -103.77,-36.15 -154,-58.5 -72.15,-33.07 -144.15,-66.74 -216,-101 -28.56,-12.68 -57.23,-24.85 -86,-36.5 14.12,-5.56 27.78,-11.89 41,-19 z"
           id="path45" />
      </g>
      <g
         id="g46"
         style="opacity:0.89">
        <path
           style="opacity:1"
           fill="#30b7f2"
           d="m 1251.5,2011.5 c 0.33,0 0.67,0 1,0 -0.33,83.17 0,166.17 1,249 -0.33,1 -1,1.67 -2,2 0,-83.67 0,-167.33 0,-251 z"
           id="path46" />
      </g>
      <g
         id="g47"
         style="opacity:0.89">
        <path
           style="opacity:1"
           fill="#28a0e6"
           d="m 1618.5,2187.5 c 0.22,11.69 -0.11,23.36 -1,35 -21.64,-9.31 -43.64,-17.81 -66,-25.5 -22.38,-8.01 -45.38,-13.34 -69,-16 -34.07,-4.51 -67.07,-0.51 -99,12 -27.68,12.37 -52.68,28.7 -75,49 -19.17,18.34 -38.17,36.84 -57,55.5 0,-11.67 0,-23.33 0,-35 1,-0.33 1.67,-1 2,-2 26.65,-28.49 55.31,-54.65 86,-78.5 21.73,-15.03 45.4,-26.03 71,-33 39.37,-7.26 78.37,-5.59 117,5 31.07,9.3 61.4,20.46 91,33.5 z"
           id="path47" />
      </g>
      <g
         id="g48"
         style="opacity:0.89">
        <path
           style="opacity:1"
           fill="#28a0e6"
           d="m 2157.5,2146.5 c 11.35,5.51 23.02,10.18 35,14 -43.43,29.83 -89.09,56.33 -137,79.5 -46.54,22.29 -95.2,37.96 -146,47 -50.94,8.21 -101.27,5.54 -151,-8 -45.47,-14.74 -89.81,-32.24 -133,-52.5 -1,-6.63 -1.33,-13.3 -1,-20 -0.17,-5.34 0,-10.68 0.5,-16 27.9,12.75 56.07,24.91 84.5,36.5 32.57,13.08 66.24,22.08 101,27 54.1,5.51 107.1,0.17 159,-16 67.22,-21.78 129.89,-52.28 188,-91.5 z"
           id="path48" />
      </g>
      <g
         id="g49"
         style="opacity:0.89">
        <path
           style="opacity:1"
           fill="#28a0e6"
           d="m 3410.5,2193.5 c 118.51,35.78 238.18,40.11 359,13 0,12 0,24 0,36 -74.94,16.03 -150.6,20.53 -227,13.5 -44.76,-5.18 -88.76,-14.02 -132,-26.5 0,-12 0,-24 0,-36 z"
           id="path49" />
      </g>
      <g
         id="g50"
         style="opacity:0.89">
        <path
           style="opacity:1"
           fill="#79faff"
           d="m 1943.5,2406.5 c -5.27,2.61 -10.27,5.61 -15,9 -0.67,0 -1.33,0 -2,0 -2.8,-1.9 -5.8,-3.57 -9,-5 124.94,-72.81 250.28,-145.15 376,-217 1.2,0.35 1.2,0.85 0,1.5 -117.1,69.97 -233.77,140.47 -350,211.5 z"
           id="path50" />
      </g>
      <g
         id="g51"
         style="opacity:0.89">
        <path
           style="opacity:1"
           fill="#1d86d9"
           d="m 3402.5,2348.5 c -0.67,11.33 -1.33,22.67 -2,34 -2.84,-1.12 -5.5,-0.62 -8,1.5 -55.33,31 -110.67,62 -166,93 -1.52,1.01 -3.19,1.51 -5,1.5 -125.47,-69.23 -250.8,-138.73 -376,-208.5 82.87,-33.56 169.03,-51.06 258.5,-52.5 76.76,-1.19 148.93,16.31 216.5,52.5 29.27,17.26 56.27,37.59 81,61 0.97,5.74 1.31,11.57 1,17.5 z"
           id="path51" />
      </g>
      <g
         id="g52"
         style="opacity:0.89">
        <path
           style="opacity:1"
           fill="#41e0fe"
           d="m 2840.5,2272.5 c -28.07,10.03 -55.74,21.2 -83,33.5 -60.91,28.12 -121.58,56.79 -182,86 -63.18,29.76 -128.18,54.76 -195,75 -44.58,12.31 -89.91,20.65 -136,25 -73.92,6.68 -145.59,-2.99 -215,-29 -34.75,-13.71 -68.42,-29.55 -101,-47.5 4.73,-3.39 9.73,-6.39 15,-9 19.45,8.73 38.45,18.56 57,29.5 13.18,4.59 25.84,10.26 38,17 13.96,3.99 27.46,9.15 40.5,15.5 0.56,-0.52 1.23,-0.86 2,-1 6.98,1.57 13.65,3.91 20,7 15.45,1.56 30.78,4.56 46,9 15.21,-0.75 30.37,0.25 45.5,3 14.95,-1.55 29.95,-2.55 45,-3 2.21,0.1 4.38,0.44 6.5,1 16.57,-3.61 33.41,-6.11 50.5,-7.5 14.68,-3.5 29.35,-7 44,-10.5 0.67,0.33 1.33,0.67 2,1 15.74,-5.47 31.58,-10.47 47.5,-15 0.33,0.33 0.67,0.67 1,1 16.42,-7.03 33.26,-12.86 50.5,-17.5 48.14,-19.99 95.64,-41.16 142.5,-63.5 0.33,0.33 0.67,0.67 1,1 32.5,-17.34 65.33,-33.01 98.5,-47 46.82,-23.48 94.98,-44.15 144.5,-62 5.28,2.05 10.12,4.72 14.5,8 z"
           id="path52" />
      </g>
      <g
         id="g53"
         style="opacity:0.89">
        <path
           style="opacity:1"
           fill="#1d86d9"
           d="m 2840.5,2272.5 c 125.31,72.65 250.64,145.32 376,218 1.33,57.67 1.33,115.33 0,173 -179.66,102.49 -358.99,205.49 -538,309 -56.01,-31 -112.01,-62 -168,-93 -53.95,29.31 -107.62,59.14 -161,89.5 -1.52,1.01 -3.19,1.51 -5,1.5 -180.17,-104.59 -360.5,-208.92 -541,-313 -0.33,-56.07 0,-112.07 1,-168 40.95,-24.3 81.62,-48.97 122,-74 0.67,0 1.33,0 2,0 32.58,17.95 66.25,33.79 101,47.5 69.41,26.01 141.08,35.68 215,29 46.09,-4.35 91.42,-12.69 136,-25 66.82,-20.24 131.82,-45.24 195,-75 60.42,-29.21 121.09,-57.88 182,-86 27.26,-12.3 54.93,-23.47 83,-33.5 z"
           id="path53" />
      </g>
      <g
         id="g54"
         style="opacity:0.89">
        <path
           style="opacity:1"
           fill="#40e0fe"
           d="m 3769.5,2492.5 c 0,2.67 0,5.33 0,8 -36.74,2.63 -73.4,1.8 -110,-2.5 -57.19,-8.6 -107.86,-31.27 -152,-68 -32.07,-27.57 -63.07,-56.4 -93,-86.5 -0.34,-0.84 -1.01,-1.17 -2,-1 -0.17,-10.67 0,-21.34 0.5,-32 1.17,1.39 2.67,2.23 4.5,2.5 19.62,17.61 39.28,35.28 59,53 25.48,25.82 51.81,50.49 79,74 8.83,5.25 17.16,11.25 25,18 9.06,3.4 17.39,8.07 25,14 13.59,5.1 27.25,9.93 41,14.5 7.07,-0.29 13.9,1.05 20.5,4 1.23,-0.61 2.56,-0.94 4,-1 13.09,1.01 26.09,2.68 39,5 8.31,-0.73 16.65,-1.4 25,-2 11.54,0.4 23.04,0.4 34.5,0 z"
           id="path54" />
      </g>
      <g
         id="g55"
         style="opacity:0.89">
        <path
           style="opacity:1"
           fill="#1d86d9"
           d="m 1615.5,2385.5 c -57.33,32 -114.67,64 -172,96 -1.33,69.83 -1.33,139.83 0,210 59.73,35.53 119.73,70.53 180,105 59.8,-34.74 119.47,-69.74 179,-105 0.67,-6.15 1.33,-12.15 2,-18 175.5,101.59 351.17,202.92 527,304 0,0.67 0,1.33 0,2 -1.33,69.83 -1.33,139.83 0,210 59.53,35.26 119.2,70.26 179,105 59.86,-34.85 119.69,-69.85 179.5,-105 0.17,-69.74 0.67,-139.4 1.5,-209 175.32,-100.97 350.65,-201.97 526,-303 -0.33,4.71 0.01,9.38 1,14 59.53,35.26 119.2,70.26 179,105 59.9,-34.31 119.9,-69.31 180,-105 1.17,-70 1.33,-140 0.5,-210 -0.38,-0.56 -0.88,-0.89 -1.5,-1 -54.53,-30.1 -108.86,-60.43 -163,-91 0,-3.33 0,-6.67 0,-10 -0.33,-12.18 0,-24.18 1,-36 29.93,30.1 60.93,58.93 93,86.5 44.14,36.73 94.81,59.4 152,68 36.6,4.3 73.26,5.13 110,2.5 0.17,67 0,134 -0.5,201 -6.06,52.67 -29.89,95.17 -71.5,127.5 -17.5,10.92 -35.17,21.58 -53,32 -350,202 -700,404 -1050,606 -58.99,28.4 -117.33,27.07 -175,-4 -358,-206.67 -716,-413.33 -1074,-620 -54.75,-31.8 -85.92,-79.3 -93.5,-142.5 -0.5,-83 -0.67,-166 -0.5,-249 31.32,-18.33 62.98,-36.16 95,-53.5 37.32,-19.99 75.65,-37.66 115,-53 49.92,-19.21 101.59,-30.04 155,-32.5 -0.59,24.33 -0.92,48.66 -1,73 z"
           id="path55" />
      </g>
      <g
         id="g56"
         style="opacity:0.89">
        <path
           style="opacity:1"
           fill="#1d86d9"
           d="m 1916.5,2410.5 c -39.33,22.67 -78.67,45.33 -118,68 -57.31,-31.65 -114.64,-63.32 -172,-95 0,-23.67 0,-47.33 0,-71 46.14,0.18 90.81,8.35 134,24.5 53.66,21 105.66,45.5 156,73.5 z"
           id="path56" />
      </g>
      <g
         id="g57"
         style="opacity:0.89">
        <path
           style="opacity:1"
           fill="#2face9"
           d="m 3412.5,2342.5 c 0.99,-0.17 1.66,0.16 2,1 -1,11.82 -1.33,23.82 -1,36 -1,-12.16 -1.33,-24.49 -1,-37 z"
           id="path57" />
      </g>
      <g
         id="g58"
         style="opacity:0.89">
        <path
           style="opacity:1"
           fill="#30abe8"
           d="m 3402.5,2348.5 c 0,11.67 0,23.33 0,35 -0.99,0.17 -1.66,-0.16 -2,-1 0.67,-11.33 1.33,-22.67 2,-34 z"
           id="path58" />
      </g>
      <g
         id="g59"
         style="opacity:0.89">
        <path
           style="opacity:1"
           fill="#97dffe"
           d="m 3400.5,2382.5 c 0.34,0.84 1.01,1.17 2,1 3.18,2.76 6.84,4.76 11,6 54.14,30.57 108.47,60.9 163,91 0.09,1 -0.25,1.83 -1,2.5 -58.86,35.6 -118.2,70.43 -178,104.5 -59.87,-35.1 -119.53,-70.43 -179,-106 1.33,-0.67 2.33,-1.67 3,-3 1.81,0.01 3.48,-0.49 5,-1.5 55.33,-31 110.67,-62 166,-93 2.5,-2.12 5.16,-2.62 8,-1.5 z"
           id="path59" />
      </g>
      <g
         id="g60"
         style="opacity:0.89">
        <path
           style="opacity:1"
           fill="#97dffe"
           d="m 1626.5,2383.5 c 57.36,31.68 114.69,63.35 172,95 1.33,1 2.67,2 4,3 -59.38,36.36 -119.38,71.69 -180,106 -59.87,-35.1 -119.53,-70.43 -179,-106 57.33,-32 114.67,-64 172,-96 2.57,-1.2 5.07,-2.53 7.5,-4 1.3,0.48 2.47,1.14 3.5,2 z"
           id="path60" />
      </g>
      <g
         id="g61"
         style="opacity:0.89">
        <path
           style="opacity:1"
           fill="#5beefe"
           d="m 1916.5,2410.5 c 0.33,0 0.67,0 1,0 3.2,1.43 6.2,3.1 9,5 -40.38,25.03 -81.05,49.7 -122,74 -0.67,-2.67 -1.33,-5.33 -2,-8 -1.33,-1 -2.67,-2 -4,-3 39.33,-22.67 78.67,-45.33 118,-68 z"
           id="path61" />
      </g>
      <g
         id="g62"
         style="opacity:0.89">
        <path
           style="opacity:1"
           fill="#30c0fe"
           d="m 1443.5,2481.5 c 59.47,35.57 119.13,70.9 179,106 1,69.6 1.33,139.26 1,209 -60.27,-34.47 -120.27,-69.47 -180,-105 -1.33,-70.17 -1.33,-140.17 0,-210 z"
           id="path62" />
      </g>
      <g
         id="g63"
         style="opacity:0.89">
        <path
           style="opacity:1"
           fill="#30c0fe"
           d="m 3218.5,2481.5 c 59.47,35.57 119.13,70.9 179,106 0,69.67 0,139.33 0,209 -59.8,-34.74 -119.47,-69.74 -179,-105 -0.99,-4.62 -1.33,-9.29 -1,-14 0.32,-4.86 -0.01,-9.53 -1,-14 1.33,-57.67 1.33,-115.33 0,-173 0.67,-3 1.33,-6 2,-9 z"
           id="path63" />
      </g>
      <g
         id="g64"
         style="opacity:0.89">
        <path
           style="opacity:1"
           fill="#6ed3fe"
           d="m 3576.5,2480.5 c 0.62,0.11 1.12,0.44 1.5,1 0.83,70 0.67,140 -0.5,210 -60.1,35.69 -120.1,70.69 -180,105 0,-69.67 0,-139.33 0,-209 59.8,-34.07 119.14,-68.9 178,-104.5 0.75,-0.67 1.09,-1.5 1,-2.5 z"
           id="path64" />
      </g>
      <g
         id="g65"
         style="opacity:0.89">
        <path
           style="opacity:1"
           fill="#6ed3fe"
           d="m 1802.5,2481.5 c 0.67,2.67 1.33,5.33 2,8 -1,55.93 -1.33,111.93 -1,168 -0.28,5.43 0.05,10.76 1,16 -0.67,5.85 -1.33,11.85 -2,18 -59.53,35.26 -119.2,70.26 -179,105 0.33,-69.74 0,-139.4 -1,-209 60.62,-34.31 120.62,-69.64 180,-106 z"
           id="path65" />
      </g>
      <g
         id="g66"
         style="opacity:0.89">
        <path
           style="opacity:1"
           fill="#47e0fe"
           d="m 1803.5,2657.5 c 180.5,104.08 360.83,208.41 541,313 0.13,0.88 -0.2,1.54 -1,2 -3.74,1.62 -7.24,3.62 -10.5,6 -0.38,-0.56 -0.88,-0.89 -1.5,-1 -175.83,-101.08 -351.5,-202.41 -527,-304 -0.95,-5.24 -1.28,-10.57 -1,-16 z"
           id="path66" />
      </g>
      <g
         id="g67"
         style="opacity:0.89">
        <path
           style="opacity:1"
           fill="#47e0fe"
           d="m 3216.5,2663.5 c 0.99,4.47 1.32,9.14 1,14 -175.35,101.03 -350.68,202.03 -526,303 -0.33,0 -0.67,0 -1,0 -3.66,-3.16 -7.66,-5.83 -12,-8 179.01,-103.51 358.34,-206.51 538,-309 z"
           id="path67" />
      </g>
      <g
         id="g68"
         style="opacity:0.89">
        <path
           style="opacity:1"
           fill="#97dffe"
           d="m 2678.5,2972.5 c 4.34,2.17 8.34,4.84 12,8 -60,35 -120,70 -180,105 -59.87,-35.1 -119.53,-70.43 -179,-106 0,-0.67 0,-1.33 0,-2 0.62,0.11 1.12,0.44 1.5,1 3.26,-2.38 6.76,-4.38 10.5,-6 0.8,-0.46 1.13,-1.12 1,-2 1.81,0.01 3.48,-0.49 5,-1.5 53.38,-30.36 107.05,-60.19 161,-89.5 55.99,31 111.99,62 168,93 z"
           id="path68" />
      </g>
      <g
         id="g69"
         style="opacity:0.89">
        <path
           style="opacity:1"
           fill="#30c1fe"
           d="m 2331.5,2979.5 c 59.47,35.57 119.13,70.9 179,106 0,69.67 0,139.33 0,209 -59.8,-34.74 -119.47,-69.74 -179,-105 -1.33,-70.17 -1.33,-140.17 0,-210 z"
           id="path69" />
      </g>
      <g
         id="g70"
         style="opacity:0.89">
        <path
           style="opacity:1"
           fill="#6ed3fe"
           d="m 2690.5,2980.5 c 0.33,0 0.67,0 1,0 -0.83,69.6 -1.33,139.26 -1.5,209 -59.81,35.15 -119.64,70.15 -179.5,105 0,-69.67 0,-139.33 0,-209 60,-35 120,-70 180,-105 z"
           id="path70" />
      </g>
    </g>
    <g
       id="g82"
       transform="matrix(0.92790702,0,0,1.0691247,701.41064,-1713.5456)">
      <g
         id="g71"
         style="opacity:0.89">
        <path
           style="opacity:0.988"
           fill="#1d85d9"
           d="m 1801.5,3709.5 c 64.11,-5.15 117.28,16.19 159.5,64 36.36,49.8 47.03,104.8 32,165 -23.61,74.27 -74.11,116.77 -151.5,127.5 -62.23,6.15 -114.73,-13.35 -157.5,-58.5 -33.82,-41.26 -47.82,-88.59 -42,-142 8.8,-65.1 42.63,-111.93 101.5,-140.5 18.71,-8.01 38.04,-13.18 58,-15.5 z m 5,78 c 56.82,-4.03 91.32,21.64 103.5,77 5.16,29.22 0.83,56.88 -13,83 -17.85,27.68 -43.35,41.34 -76.5,41 -49.19,-1.85 -79.03,-26.85 -89.5,-75 -5.31,-28.9 -1.65,-56.57 11,-83 14.73,-24.57 36.23,-38.9 64.5,-43 z"
           id="path71" />
      </g>
      <g
         id="g72"
         style="opacity:0.89">
        <path
           style="opacity:0.989"
           fill="#30c1ff"
           d="m 3507.5,3709.5 c 62.4,-5.02 114.57,15.32 156.5,61 31.77,40.07 45.11,85.73 40,137 -9.48,75.47 -49.98,125.97 -121.5,151.5 -61.12,17.2 -117.46,7.54 -169,-29 -48.85,-40.9 -71.02,-93.4 -66.5,-157.5 8.49,-77.82 49.66,-129.65 123.5,-155.5 12.3,-3.38 24.63,-5.88 37,-7.5 z m 4,78 c 58.49,-4.02 93.32,22.64 104.5,80 4.51,28.63 -0.16,55.63 -14,81 -23.19,32.52 -54.69,45.36 -94.5,38.5 -40.63,-9.63 -64.46,-35.13 -71.5,-76.5 -4.59,-28.33 -0.59,-55.33 12,-81 14.78,-23.64 35.95,-37.64 63.5,-42 z"
           id="path72" />
      </g>
      <g
         id="g73"
         style="opacity:0.89">
        <path
           style="opacity:0.99"
           fill="#1d85d9"
           d="m 2562.5,3710.5 c 41.07,-3.66 79.74,4.18 116,23.5 34.85,21.18 56.85,51.68 66,91.5 -31.67,0.33 -63.34,0 -95,-1 -13.21,-21.45 -32.54,-32.95 -58,-34.5 -46.57,-3.14 -78.07,17.02 -94.5,60.5 -7.53,26.76 -7.2,53.43 1,80 10.7,30.04 31.54,48.87 62.5,56.5 22.41,5.3 44.41,3.96 66,-4 22.59,-11.09 37.92,-28.59 46,-52.5 -35.66,-1 -71.33,-1.33 -107,-1 0,-21 0,-42 0,-63 61.67,0 123.33,0 185,0 14.47,76.85 -11.2,135.68 -77,176.5 -43.71,23.05 -89.71,29.05 -138,18 -74.44,-20.11 -117.61,-68.27 -129.5,-144.5 -6.15,-45.58 2.18,-88.25 25,-128 31.41,-46.63 75.24,-72.63 131.5,-78 z"
           id="path73" />
      </g>
      <g
         id="g74"
         style="opacity:0.89">
        <path
           style="opacity:0.987"
           fill="#30c1ff"
           d="m 3892.5,3710.5 c 43.15,-4.04 83.15,5.12 120,27.5 33.69,23.18 55.69,54.68 66,94.5 -31.67,1.33 -63.33,1.33 -95,0 -15.2,-29.03 -39.37,-43.7 -72.5,-44 -40.23,1.61 -67.23,21.27 -81,59 -9.36,31.92 -7.69,63.26 5,94 24.54,41.3 60.04,55.13 106.5,41.5 18.86,-7.59 32.86,-20.42 42,-38.5 31.66,-1.17 63.33,-1.33 95,-0.5 -16.56,60.23 -54.89,98.89 -115,116 -44.44,10.6 -87.77,7.26 -130,-10 -59.75,-30.81 -91.92,-79.98 -96.5,-147.5 -4.6,-59.23 14.23,-109.4 56.5,-150.5 28.84,-23.75 61.84,-37.59 99,-41.5 z"
           id="path74" />
      </g>
      <g
         id="g75"
         style="opacity:0.89">
        <path
           style="opacity:0.992"
           fill="#1d85d9"
           d="m 585.5,3714.5 c 33.906,-0.33 67.74,0 101.5,1 31.798,79.59 64.132,158.92 97,238 31.735,-79.37 63.569,-158.71 95.5,-238 33.66,-1 67.327,-1.33 101,-1 0,116.33 0,232.67 0,349 -28.667,0 -57.333,0 -86,0 0.167,-68 0,-136 -0.5,-204 -25.472,67.92 -50.639,135.92 -75.5,204 -23.575,0.33 -47.075,-0.01 -70.5,-1 -25.667,-68.67 -51.333,-137.33 -77,-206 -0.5,69 -0.667,138 -0.5,207 -28.333,0 -56.667,0 -85,0 0,-116.33 0,-232.67 0,-349 z"
           id="path75" />
      </g>
      <g
         id="g76"
         style="opacity:0.89">
        <path
           style="opacity:0.986"
           fill="#1d85d9"
           d="m 1040.5,3714.5 c 71.67,0 143.33,0 215,0 0,23 0,46 0,69 -43,0 -86,0 -129,0 0,23 0,46 0,69 38,0 76,0 114,0 0,22.33 0,44.67 0,67 -38,0 -76,0 -114,0 0,25 0,50 0,75 43,0 86,0 129,0 0,23 0,46 0,69 -71.67,0 -143.33,0 -215,0 0,-116.33 0,-232.67 0,-349 z"
           id="path76" />
      </g>
      <g
         id="g77"
         style="opacity:0.89">
        <path
           style="opacity:0.988"
           fill="#1d85d9"
           d="m 1309.5,3714.5 c 28.67,0 57.33,0 86,0 -0.17,50 0,100 0.5,150 37.83,-49.83 75.67,-99.67 113.5,-149.5 34,-0.67 68,-0.67 102,0 -44.88,56.92 -89.88,113.76 -135,170.5 46.86,59.02 93.52,118.19 140,177.5 -35.34,0.83 -70.67,0.67 -106,-0.5 -37.92,-50.18 -76.09,-100.18 -114.5,-150 -0.5,50.33 -0.67,100.67 -0.5,151 -28.67,0 -57.33,0 -86,0 0,-116.33 0,-232.67 0,-349 z"
           id="path77" />
      </g>
      <g
         id="g78"
         style="opacity:0.89">
        <path
           style="opacity:0.99"
           fill="#1d85d9"
           d="m 2045.5,3714.5 c 28.67,-0.17 57.34,0 86,0.5 47.21,70.91 94.04,142.08 140.5,213.5 0.5,-71.33 0.67,-142.67 0.5,-214 28.67,0 57.33,0 86,0 0,116.33 0,232.67 0,349 -29.01,0.33 -58.01,0 -87,-1 -46.5,-70.33 -93,-140.67 -139.5,-211 -0.5,70.67 -0.67,141.33 -0.5,212 -28.67,0 -57.33,0 -86,0 0,-116.33 0,-232.67 0,-349 z"
           id="path78" />
      </g>
      <g
         id="g79"
         style="opacity:0.89">
        <path
           style="opacity:0.99"
           fill="#30c1ff"
           d="m 2796.5,3714.5 c 62.02,-0.47 124.02,0.03 186,1.5 62.74,10.06 90.57,46.56 83.5,109.5 -7.11,29.78 -25.28,49.28 -54.5,58.5 41.48,13.15 62.81,41.48 64,85 -0.05,41.1 -19.05,69.44 -57,85 -13.59,4.92 -27.59,7.92 -42,9 -60,0.5 -120,0.67 -180,0.5 0,-116.33 0,-232.67 0,-349 z m 86,69 c 22.34,-0.17 44.67,0 67,0.5 25.37,5.88 35.21,21.71 29.5,47.5 -3.5,10.17 -10.33,17 -20.5,20.5 -5.53,1.73 -11.2,2.73 -17,3 -19.66,0.5 -39.33,0.67 -59,0.5 0,-24 0,-48 0,-72 z m 0,135 c 24,-0.17 48,0 72,0.5 28.33,6.02 39.17,23.19 32.5,51.5 -7.64,16.08 -20.47,23.91 -38.5,23.5 -22,0.5 -44,0.67 -66,0.5 0,-25.33 0,-50.67 0,-76 z"
           id="path79" />
      </g>
      <g
         id="g80"
         style="opacity:0.89">
        <path
           style="opacity:0.997"
           fill="#30c1ff"
           d="m 3124.5,3714.5 c 28.33,0 56.67,0 85,0 0,94.33 0,188.67 0,283 37.33,0 74.67,0 112,0 0,22 0,44 0,66 -65.67,0 -131.33,0 -197,0 0,-116.33 0,-232.67 0,-349 z"
           id="path80" />
      </g>
      <g
         id="g81"
         style="opacity:0.89">
        <path
           style="opacity:0.989"
           fill="#30c1ff"
           d="m 4129.5,3714.5 c 28.67,0 57.33,0 86,0 -0.17,50 0,100 0.5,150 37.83,-49.83 75.67,-99.67 113.5,-149.5 34,-0.67 68,-0.67 102,0 -45.36,56.56 -90.36,113.39 -135,170.5 46.57,58.82 92.91,117.82 139,177 -35,1.33 -70,1.33 -105,0 -38.36,-49.86 -76.53,-99.86 -114.5,-150 -0.5,50.33 -0.67,100.67 -0.5,151 -28.67,0 -57.33,0 -86,0 0,-116.33 0,-232.67 0,-349 z"
           id="path81" />
      </g>
    </g>
  </g>
</svg>
