<?xml version="1.0" encoding="UTF-8"?>
<!DOCTYPE svg PUBLIC "-//W3C//DTD SVG 1.1//EN" "http://www.w3.org/Graphics/SVG/1.1/DTD/svg11.dtd">
<svg xmlns="http://www.w3.org/2000/svg" version="1.1" width="5001px" height="5001px" style="shape-rendering:geometricPrecision; text-rendering:geometricPrecision; image-rendering:optimizeQuality; fill-rule:evenodd; clip-rule:evenodd" xmlns:xlink="http://www.w3.org/1999/xlink">
<g><path style="opacity:0.999" fill="#1d86d9" d="M 3769.5,1700.5 C 3725.17,1778.5 3663.17,1838.17 3583.5,1879.5C 3569.64,1886.26 3555.98,1893.26 3542.5,1900.5C 3499.1,1894.01 3455.43,1891.34 3411.5,1892.5C 3411.5,1885.5 3411.5,1878.5 3411.5,1871.5C 3412.11,1831.5 3412.45,1791.5 3412.5,1751.5C 3467.31,1718.93 3522.31,1686.59 3577.5,1654.5C 3578.67,1584.5 3578.83,1514.5 3578,1444.5C 3577.62,1443.94 3577.12,1443.61 3576.5,1443.5C 3517.09,1410.38 3457.59,1377.38 3398,1344.5C 3339.54,1376.98 3281.04,1409.31 3222.5,1441.5C 3045.78,1338.8 2868.78,1236.47 2691.5,1134.5C 2690.5,1065.9 2690.17,997.238 2690.5,928.5C 2630.89,894.354 2570.89,860.687 2510.5,827.5C 2450.61,860.608 2390.94,893.941 2331.5,927.5C 2330.5,997.665 2330.17,1068 2330.5,1138.5C 2154.17,1239.66 1978.17,1341.33 1802.5,1443.5C 1742.62,1410.64 1682.79,1377.64 1623,1344.5C 1563.41,1377.38 1503.91,1410.38 1444.5,1443.5C 1443.88,1443.61 1443.38,1443.94 1443,1444.5C 1442.17,1514.5 1442.33,1584.5 1443.5,1654.5C 1500.8,1687.97 1557.96,1721.63 1615,1755.5C 1615.17,1765.34 1615.67,1775.01 1616.5,1784.5C 1616.66,1811.17 1616.99,1837.84 1617.5,1864.5C 1616.73,1863.74 1616.23,1862.74 1616,1861.5C 1606.52,1866.82 1597.35,1872.48 1588.5,1878.5C 1571.97,1887.38 1555.97,1897.05 1540.5,1907.5C 1495.68,1912.19 1452.01,1922.03 1409.5,1937C 1355.04,1957.56 1302.71,1982.4 1252.5,2011.5C 1252.17,2011.5 1251.83,2011.5 1251.5,2011.5C 1251.33,1815.17 1251.5,1618.83 1252,1422.5C 1259.15,1360.32 1289.31,1313.16 1342.5,1281C 1703,1073.25 2063.33,865.253 2423.5,657C 2470.82,632.849 2519.82,628.849 2570.5,645C 2580.5,648.557 2590.17,652.891 2599.5,658C 2959,865.919 3318.67,1073.59 3678.5,1281C 3728.54,1310.87 3758.38,1354.7 3768,1412.5C 3769.48,1508.48 3769.98,1604.48 3769.5,1700.5 Z"/></g>
<g><path style="opacity:1" fill="#97dffe" d="M 2690.5,928.5 C 2630.53,963.486 2570.53,998.486 2510.5,1033.5C 2450.33,998.919 2390.66,963.586 2331.5,927.5C 2390.94,893.941 2450.61,860.608 2510.5,827.5C 2570.89,860.687 2630.89,894.354 2690.5,928.5 Z"/></g>
<g><path style="opacity:1" fill="#30c1fe" d="M 2331.5,927.5 C 2390.66,963.586 2450.33,998.919 2510.5,1033.5C 2510.5,1103.17 2510.5,1172.83 2510.5,1242.5C 2454.98,1210.82 2399.81,1178.49 2345,1145.5C 2344.62,1146.06 2344.12,1146.39 2343.5,1146.5C 2343.06,1144.93 2342.06,1143.76 2340.5,1143C 2337.46,1140.78 2334.13,1139.28 2330.5,1138.5C 2330.17,1068 2330.5,997.665 2331.5,927.5 Z"/></g>
<g><path style="opacity:1" fill="#6ed3fe" d="M 2690.5,928.5 C 2690.17,997.238 2690.5,1065.9 2691.5,1134.5C 2690.73,1135.26 2690.23,1136.26 2690,1137.5C 2687.09,1139.18 2684.59,1141.18 2682.5,1143.5C 2679.98,1143.76 2677.65,1144.59 2675.5,1146C 2620.77,1178.69 2565.77,1210.86 2510.5,1242.5C 2510.5,1172.83 2510.5,1103.17 2510.5,1033.5C 2570.53,998.486 2630.53,963.486 2690.5,928.5 Z"/></g>
<g><path style="opacity:1" fill="#47e0fe" d="M 2691.5,1134.5 C 2868.78,1236.47 3045.78,1338.8 3222.5,1441.5C 3221.17,1442.5 3219.83,1443.5 3218.5,1444.5C 3217.83,1447.17 3217.17,1449.83 3216.5,1452.5C 3038.2,1350.02 2860.2,1247.02 2682.5,1143.5C 2684.59,1141.18 2687.09,1139.18 2690,1137.5C 2690.23,1136.26 2690.73,1135.26 2691.5,1134.5 Z"/></g>
<g><path style="opacity:1" fill="#47e0fe" d="M 2330.5,1138.5 C 2334.13,1139.28 2337.46,1140.78 2340.5,1143C 2342.06,1143.76 2343.06,1144.93 2343.5,1146.5C 2163.78,1250.21 1983.78,1353.54 1803.5,1456.5C 1803.82,1452.3 1803.48,1448.3 1802.5,1444.5C 1802.5,1444.17 1802.5,1443.83 1802.5,1443.5C 1978.17,1341.33 2154.17,1239.66 2330.5,1138.5 Z"/></g>
<g><path style="opacity:1" fill="#1d86d9" d="M 2682.5,1143.5 C 2860.2,1247.02 3038.2,1350.02 3216.5,1452.5C 3217.83,1518.17 3217.83,1583.83 3216.5,1649.5C 3090.33,1724.75 2964,1799.75 2837.5,1874.5C 2752.41,1847.06 2668.41,1816.56 2585.5,1783C 2500.19,1750.94 2412.53,1727.6 2322.5,1713C 2203.4,1694.3 2084.73,1696.63 1966.5,1720C 1954.96,1722.52 1943.63,1725.36 1932.5,1728.5C 1889.5,1702.5 1846.5,1676.5 1803.5,1650.5C 1803.5,1585.83 1803.5,1521.17 1803.5,1456.5C 1983.78,1353.54 2163.78,1250.21 2343.5,1146.5C 2344.12,1146.39 2344.62,1146.06 2345,1145.5C 2399.81,1178.49 2454.98,1210.82 2510.5,1242.5C 2565.77,1210.86 2620.77,1178.69 2675.5,1146C 2677.65,1144.59 2679.98,1143.76 2682.5,1143.5 Z"/></g>
<g><path style="opacity:1" fill="#97dffe" d="M 1802.5,1443.5 C 1802.5,1443.83 1802.5,1444.17 1802.5,1444.5C 1752.73,1474.56 1702.73,1504.39 1652.5,1534C 1642.61,1539.78 1632.61,1545.28 1622.5,1550.5C 1563.53,1515.68 1504.53,1480.84 1445.5,1446C 1444.75,1445.33 1444.41,1444.5 1444.5,1443.5C 1503.91,1410.38 1563.41,1377.38 1623,1344.5C 1682.79,1377.64 1742.62,1410.64 1802.5,1443.5 Z"/></g>
<g><path style="opacity:1" fill="#97dffe" d="M 3576.5,1443.5 C 3575.97,1445.62 3574.64,1447.12 3572.5,1448C 3514.44,1482.69 3456.11,1516.86 3397.5,1550.5C 3337.63,1515.4 3277.97,1480.07 3218.5,1444.5C 3219.83,1443.5 3221.17,1442.5 3222.5,1441.5C 3281.04,1409.31 3339.54,1376.98 3398,1344.5C 3457.59,1377.38 3517.09,1410.38 3576.5,1443.5 Z"/></g>
<g><path style="opacity:1" fill="#30c0fe" d="M 1444.5,1443.5 C 1444.41,1444.5 1444.75,1445.33 1445.5,1446C 1504.53,1480.84 1563.53,1515.68 1622.5,1550.5C 1622.5,1550.83 1622.5,1551.17 1622.5,1551.5C 1622.83,1620.67 1622.5,1689.67 1621.5,1758.5C 1620.19,1757.85 1618.86,1757.18 1617.5,1756.5C 1616.5,1765.81 1616.17,1775.14 1616.5,1784.5C 1615.67,1775.01 1615.17,1765.34 1615,1755.5C 1557.96,1721.63 1500.8,1687.97 1443.5,1654.5C 1442.33,1584.5 1442.17,1514.5 1443,1444.5C 1443.38,1443.94 1443.88,1443.61 1444.5,1443.5 Z"/></g>
<g><path style="opacity:1" fill="#6ed3fe" d="M 1802.5,1444.5 C 1803.48,1448.3 1803.82,1452.3 1803.5,1456.5C 1803.5,1521.17 1803.5,1585.83 1803.5,1650.5C 1803.76,1651.98 1803.43,1653.31 1802.5,1654.5C 1799.77,1656.19 1797.1,1657.86 1794.5,1659.5C 1738.72,1691.89 1683.06,1724.56 1627.5,1757.5C 1626.83,1761.98 1626.17,1766.32 1625.5,1770.5C 1625.67,1766.49 1625.5,1762.49 1625,1758.5C 1624.62,1759.06 1624.12,1759.39 1623.5,1759.5C 1623.83,1690 1623.5,1620.66 1622.5,1551.5C 1622.5,1551.17 1622.5,1550.83 1622.5,1550.5C 1632.61,1545.28 1642.61,1539.78 1652.5,1534C 1702.73,1504.39 1752.73,1474.56 1802.5,1444.5 Z"/></g>
<g><path style="opacity:1" fill="#30c0fe" d="M 3218.5,1444.5 C 3277.97,1480.07 3337.63,1515.4 3397.5,1550.5C 3397.5,1620.17 3397.5,1689.83 3397.5,1759.5C 3340.28,1725.97 3283.11,1692.3 3226,1658.5C 3225.62,1659.06 3225.12,1659.39 3224.5,1659.5C 3223.18,1657.19 3221.18,1655.52 3218.5,1654.5C 3217.83,1652.71 3217.16,1651.04 3216.5,1649.5C 3217.83,1583.83 3217.83,1518.17 3216.5,1452.5C 3217.17,1449.83 3217.83,1447.17 3218.5,1444.5 Z"/></g>
<g><path style="opacity:1" fill="#6ed3fe" d="M 3576.5,1443.5 C 3577.12,1443.61 3577.62,1443.94 3578,1444.5C 3578.83,1514.5 3578.67,1584.5 3577.5,1654.5C 3522.31,1686.59 3467.31,1718.93 3412.5,1751.5C 3408.88,1753.14 3405.55,1755.14 3402.5,1757.5C 3400.83,1758.17 3399.17,1758.83 3397.5,1759.5C 3397.5,1689.83 3397.5,1620.17 3397.5,1550.5C 3456.11,1516.86 3514.44,1482.69 3572.5,1448C 3574.64,1447.12 3575.97,1445.62 3576.5,1443.5 Z"/></g>
<g><path style="opacity:1" fill="#52ceff" d="M 1622.5,1551.5 C 1623.5,1620.66 1623.83,1690 1623.5,1759.5C 1622.51,1759.67 1621.84,1759.34 1621.5,1758.5C 1622.5,1689.67 1622.83,1620.67 1622.5,1551.5 Z"/></g>
<g><path style="opacity:1" fill="#46defd" d="M 3216.5,1649.5 C 3217.16,1651.04 3217.83,1652.71 3218.5,1654.5C 3221.18,1655.52 3223.18,1657.19 3224.5,1659.5C 3097.47,1731.34 2970.81,1803.68 2844.5,1876.5C 2834.03,1881.9 2823.7,1887.57 2813.5,1893.5C 2787.89,1907.8 2762.55,1922.47 2737.5,1937.5C 2730.83,1940.83 2724.17,1944.17 2717.5,1947.5C 2721.79,1944.01 2726.46,1941.01 2731.5,1938.5C 2757.54,1922.82 2783.54,1907.15 2809.5,1891.5C 2819.2,1886.32 2828.54,1880.65 2837.5,1874.5C 2964,1799.75 3090.33,1724.75 3216.5,1649.5 Z"/></g>
<g><path style="opacity:1" fill="#5aeefe" d="M 1803.5,1650.5 C 1846.5,1676.5 1889.5,1702.5 1932.5,1728.5C 1943.18,1734.86 1953.85,1741.19 1964.5,1747.5C 2064.83,1808.83 2165.17,1870.17 2265.5,1931.5C 2264.83,1931.5 2264.5,1931.83 2264.5,1932.5C 2159.83,1871.83 2055.17,1811.17 1950.5,1750.5C 1940.33,1744.25 1930,1738.25 1919.5,1732.5C 1877.7,1708.43 1836.04,1684.1 1794.5,1659.5C 1797.1,1657.86 1799.77,1656.19 1802.5,1654.5C 1803.43,1653.31 1803.76,1651.98 1803.5,1650.5 Z"/></g>
<g><path style="opacity:1" fill="#1d86d9" d="M 3397.5,1759.5 C 3399.17,1758.83 3400.83,1758.17 3402.5,1757.5C 3402.61,1797.5 3402.94,1837.5 3403.5,1877.5C 3403.5,1882.5 3403.5,1887.5 3403.5,1892.5C 3316.07,1897.86 3231.4,1915.86 3149.5,1946.5C 3131.93,1943.61 3114.27,1940.61 3096.5,1937.5C 3010.99,1923.12 2926.99,1902.79 2844.5,1876.5C 2970.81,1803.68 3097.47,1731.34 3224.5,1659.5C 3225.12,1659.39 3225.62,1659.06 3226,1658.5C 3283.11,1692.3 3340.28,1725.97 3397.5,1759.5 Z"/></g>
<g><path style="opacity:1" fill="#1d86d9" d="M 1794.5,1659.5 C 1836.04,1684.1 1877.7,1708.43 1919.5,1732.5C 1892.69,1738.04 1866.36,1745.54 1840.5,1755C 1765.84,1782.25 1694.34,1816.08 1626,1856.5C 1625.83,1862.02 1625.33,1867.35 1624.5,1872.5C 1625.2,1838.5 1625.53,1804.5 1625.5,1770.5C 1626.17,1766.32 1626.83,1761.98 1627.5,1757.5C 1683.06,1724.56 1738.72,1691.89 1794.5,1659.5 Z"/></g>
<g><path style="opacity:1" fill="#1774ce" d="M 2837.5,1874.5 C 2828.54,1880.65 2819.2,1886.32 2809.5,1891.5C 2807.47,1891.66 2805.47,1891.5 2803.5,1891C 2735.81,1868.1 2668.81,1843.44 2602.5,1817C 2505.47,1779.41 2405.47,1753.08 2302.5,1738C 2189.27,1722.54 2076.6,1725.71 1964.5,1747.5C 1953.85,1741.19 1943.18,1734.86 1932.5,1728.5C 1943.63,1725.36 1954.96,1722.52 1966.5,1720C 2084.73,1696.63 2203.4,1694.3 2322.5,1713C 2412.53,1727.6 2500.19,1750.94 2585.5,1783C 2668.41,1816.56 2752.41,1847.06 2837.5,1874.5 Z"/></g>
<g><path style="opacity:1" fill="#1774ce" d="M 3769.5,1700.5 C 3769.5,1709.83 3769.5,1719.17 3769.5,1728.5C 3732.17,1793.49 3681.84,1846.16 3618.5,1886.5C 3606.64,1884.53 3594.97,1882.19 3583.5,1879.5C 3663.17,1838.17 3725.17,1778.5 3769.5,1700.5 Z"/></g>
<g><path style="opacity:1" fill="#1b9cf0" d="M 2809.5,1891.5 C 2783.54,1907.15 2757.54,1922.82 2731.5,1938.5C 2625.93,1920.9 2524.6,1935.06 2427.5,1981C 2385.24,2001.45 2344.58,2024.45 2305.5,2050C 2265.07,2076.96 2224.57,2103.8 2184,2130.5C 2151.17,2117.17 2119.01,2102.34 2087.5,2086C 2022.51,2050.17 1957.84,2013.84 1893.5,1977C 1841.19,1948.01 1786.85,1923.67 1730.5,1904C 1716.49,1900 1702.49,1896 1688.5,1892C 1669.21,1888.25 1650.21,1884.42 1631.5,1880.5C 1708.04,1836.14 1788.37,1799.98 1872.5,1772C 1898.41,1764.19 1924.41,1757.02 1950.5,1750.5C 2055.17,1811.17 2159.83,1871.83 2264.5,1932.5C 2276.57,1939.89 2288.9,1946.89 2301.5,1953.5C 2289.84,1945.67 2277.84,1938.33 2265.5,1931.5C 2165.17,1870.17 2064.83,1808.83 1964.5,1747.5C 2076.6,1725.71 2189.27,1722.54 2302.5,1738C 2405.47,1753.08 2505.47,1779.41 2602.5,1817C 2668.81,1843.44 2735.81,1868.1 2803.5,1891C 2805.47,1891.5 2807.47,1891.66 2809.5,1891.5 Z"/></g>
<g><path style="opacity:1" fill="#1a9bf0" d="M 3769.5,1728.5 C 3769.5,1796.83 3769.5,1865.17 3769.5,1933.5C 3720.14,1914.94 3669.81,1899.6 3618.5,1887.5C 3618.5,1887.17 3618.5,1886.83 3618.5,1886.5C 3681.84,1846.16 3732.17,1793.49 3769.5,1728.5 Z"/></g>
<g><path style="opacity:1" fill="#1774ce" d="M 1919.5,1732.5 C 1930,1738.25 1940.33,1744.25 1950.5,1750.5C 1924.41,1757.02 1898.41,1764.19 1872.5,1772C 1788.37,1799.98 1708.04,1836.14 1631.5,1880.5C 1629.28,1881.37 1626.95,1881.7 1624.5,1881.5C 1624.5,1878.5 1624.5,1875.5 1624.5,1872.5C 1625.33,1867.35 1625.83,1862.02 1626,1856.5C 1694.34,1816.08 1765.84,1782.25 1840.5,1755C 1866.36,1745.54 1892.69,1738.04 1919.5,1732.5 Z"/></g>
<g><path style="opacity:1" fill="#1774ce" d="M 1617.5,1864.5 C 1617.5,1869.5 1617.5,1874.5 1617.5,1879.5C 1617.5,1879.83 1617.5,1880.17 1617.5,1880.5C 1607.87,1879.48 1598.2,1878.81 1588.5,1878.5C 1597.35,1872.48 1606.52,1866.82 1616,1861.5C 1616.23,1862.74 1616.73,1863.74 1617.5,1864.5 Z"/></g>
<g><path style="opacity:1" fill="#1a7fd5" d="M 1588.5,1878.5 C 1598.2,1878.81 1607.87,1879.48 1617.5,1880.5C 1617.5,1883.17 1617.5,1885.83 1617.5,1888.5C 1608.03,1893.74 1598.7,1899.24 1589.5,1905C 1579.32,1905.17 1569.32,1905.67 1559.5,1906.5C 1553.12,1906.29 1546.79,1906.63 1540.5,1907.5C 1555.97,1897.05 1571.97,1887.38 1588.5,1878.5 Z"/></g>
<g><path style="opacity:1" fill="#1b7fd5" d="M 3583.5,1879.5 C 3594.97,1882.19 3606.64,1884.53 3618.5,1886.5C 3618.5,1886.83 3618.5,1887.17 3618.5,1887.5C 3607.55,1893.64 3596.55,1899.81 3585.5,1906C 3583.87,1906.49 3582.2,1906.66 3580.5,1906.5C 3567.91,1904.07 3555.25,1902.07 3542.5,1900.5C 3555.98,1893.26 3569.64,1886.26 3583.5,1879.5 Z"/></g>
<g><path style="opacity:1" fill="#1c8fe3" d="M 3618.5,1887.5 C 3669.81,1899.6 3720.14,1914.94 3769.5,1933.5C 3769.5,1942.5 3769.5,1951.5 3769.5,1960.5C 3707.82,1937.33 3644.82,1919.33 3580.5,1906.5C 3582.2,1906.66 3583.87,1906.49 3585.5,1906C 3596.55,1899.81 3607.55,1893.64 3618.5,1887.5 Z"/></g>
<g><path style="opacity:1" fill="#1e91e3" d="M 1617.5,1888.5 C 1617.5,1894.83 1617.5,1901.17 1617.5,1907.5C 1598.18,1906.64 1578.85,1906.31 1559.5,1906.5C 1569.32,1905.67 1579.32,1905.17 1589.5,1905C 1598.7,1899.24 1608.03,1893.74 1617.5,1888.5 Z"/></g>
<g><path style="opacity:1" fill="#37c5f8" d="M 3411.5,1871.5 C 3411.5,1878.5 3411.5,1885.5 3411.5,1892.5C 3455.43,1891.34 3499.1,1894.01 3542.5,1900.5C 3555.25,1902.07 3567.91,1904.07 3580.5,1906.5C 3644.82,1919.33 3707.82,1937.33 3769.5,1960.5C 3769.5,2042.5 3769.5,2124.5 3769.5,2206.5C 3648.68,2233.61 3529.01,2229.28 3410.5,2193.5C 3407.78,2086 3408.12,1978.66 3411.5,1871.5 Z"/></g>
<g><path style="opacity:1" fill="#37c5f8" d="M 1617.5,1879.5 C 1618.59,1938 1619.59,1996.67 1620.5,2055.5C 1619.81,2099.5 1619.14,2143.5 1618.5,2187.5C 1588.9,2174.46 1558.57,2163.3 1527.5,2154C 1488.87,2143.41 1449.87,2141.74 1410.5,2149C 1384.9,2155.97 1361.23,2166.97 1339.5,2182C 1308.81,2205.85 1280.15,2232.01 1253.5,2260.5C 1252.5,2177.67 1252.17,2094.67 1252.5,2011.5C 1302.71,1982.4 1355.04,1957.56 1409.5,1937C 1452.01,1922.03 1495.68,1912.19 1540.5,1907.5C 1546.79,1906.63 1553.12,1906.29 1559.5,1906.5C 1578.85,1906.31 1598.18,1906.64 1617.5,1907.5C 1617.5,1901.17 1617.5,1894.83 1617.5,1888.5C 1617.5,1885.83 1617.5,1883.17 1617.5,1880.5C 1617.5,1880.17 1617.5,1879.83 1617.5,1879.5 Z"/></g>
<g><path style="opacity:1" fill="#47e1fe" d="M 3412.5,1751.5 C 3412.45,1791.5 3412.11,1831.5 3411.5,1871.5C 3408.12,1978.66 3407.78,2086 3410.5,2193.5C 3410.5,2205.5 3410.5,2217.5 3410.5,2229.5C 3453.74,2241.98 3497.74,2250.82 3542.5,2256C 3618.9,2263.03 3694.56,2258.53 3769.5,2242.5C 3769.5,2325.83 3769.5,2409.17 3769.5,2492.5C 3758.04,2492.9 3746.54,2492.9 3735,2492.5C 3726.65,2493.1 3718.31,2493.77 3710,2494.5C 3697.09,2492.18 3684.09,2490.51 3671,2489.5C 3669.56,2489.56 3668.23,2489.89 3667,2490.5C 3660.4,2487.55 3653.57,2486.21 3646.5,2486.5C 3632.75,2481.93 3619.09,2477.1 3605.5,2472C 3597.89,2466.07 3589.56,2461.4 3580.5,2458C 3572.66,2451.25 3564.33,2445.25 3555.5,2440C 3528.31,2416.49 3501.98,2391.82 3476.5,2366C 3456.78,2348.28 3437.12,2330.61 3417.5,2313C 3415.67,2312.73 3414.17,2311.89 3413,2310.5C 3412.5,2321.16 3412.33,2331.83 3412.5,2342.5C 3412.17,2355.01 3412.5,2367.34 3413.5,2379.5C 3413.5,2382.83 3413.5,2386.17 3413.5,2389.5C 3409.34,2388.26 3405.68,2386.26 3402.5,2383.5C 3402.5,2371.83 3402.5,2360.17 3402.5,2348.5C 3402.81,2342.57 3402.47,2336.74 3401.5,2331C 3376.77,2307.59 3349.77,2287.26 3320.5,2270C 3252.93,2233.81 3180.76,2216.31 3104,2217.5C 3014.53,2218.94 2928.37,2236.44 2845.5,2270C 2970.7,2339.77 3096.03,2409.27 3221.5,2478.5C 3220.83,2479.83 3219.83,2480.83 3218.5,2481.5C 3217.83,2484.5 3217.17,2487.5 3216.5,2490.5C 3091.14,2417.82 2965.81,2345.15 2840.5,2272.5C 2836.12,2269.22 2831.28,2266.55 2826,2264.5C 2776.48,2282.35 2728.32,2303.02 2681.5,2326.5C 2648.33,2340.49 2615.5,2356.16 2583,2373.5C 2582.67,2373.17 2582.33,2372.83 2582,2372.5C 2535.14,2394.84 2487.64,2416.01 2439.5,2436C 2422.26,2440.64 2405.42,2446.47 2389,2453.5C 2388.67,2453.17 2388.33,2452.83 2388,2452.5C 2372.08,2457.03 2356.24,2462.03 2340.5,2467.5C 2339.83,2467.17 2339.17,2466.83 2338.5,2466.5C 2323.85,2470 2309.18,2473.5 2294.5,2477C 2277.41,2478.39 2260.57,2480.89 2244,2484.5C 2241.88,2483.94 2239.71,2483.6 2237.5,2483.5C 2222.45,2483.95 2207.45,2484.95 2192.5,2486.5C 2177.37,2483.75 2162.21,2482.75 2147,2483.5C 2131.78,2479.06 2116.45,2476.06 2101,2474.5C 2094.65,2471.41 2087.98,2469.07 2081,2467.5C 2080.23,2467.64 2079.56,2467.98 2079,2468.5C 2065.96,2462.15 2052.46,2456.99 2038.5,2453C 2026.34,2446.26 2013.68,2440.59 2000.5,2436C 1981.95,2425.06 1962.95,2415.23 1943.5,2406.5C 2059.73,2335.47 2176.4,2264.97 2293.5,2195C 2294.7,2194.35 2294.7,2193.85 2293.5,2193.5C 2167.78,2265.35 2042.44,2337.69 1917.5,2410.5C 1917.17,2410.5 1916.83,2410.5 1916.5,2410.5C 1866.16,2382.5 1814.16,2358 1760.5,2337C 1717.31,2320.85 1672.64,2312.68 1626.5,2312.5C 1626.5,2336.17 1626.5,2359.83 1626.5,2383.5C 1625.47,2382.64 1624.3,2381.98 1623,2381.5C 1620.57,2382.97 1618.07,2384.3 1615.5,2385.5C 1615.58,2361.16 1615.91,2336.83 1616.5,2312.5C 1563.09,2314.96 1511.42,2325.79 1461.5,2345C 1422.15,2360.34 1383.82,2378.01 1346.5,2398C 1314.48,2415.34 1282.82,2433.17 1251.5,2451.5C 1251.5,2400.17 1251.5,2348.83 1251.5,2297.5C 1270.33,2278.84 1289.33,2260.34 1308.5,2242C 1330.82,2221.7 1355.82,2205.37 1383.5,2193C 1415.43,2180.49 1448.43,2176.49 1482.5,2181C 1506.12,2183.66 1529.12,2188.99 1551.5,2197C 1573.86,2204.69 1595.86,2213.19 1617.5,2222.5C 1618.39,2210.86 1618.72,2199.19 1618.5,2187.5C 1619.14,2143.5 1619.81,2099.5 1620.5,2055.5C 1619.59,1996.67 1618.59,1938 1617.5,1879.5C 1617.5,1874.5 1617.5,1869.5 1617.5,1864.5C 1616.99,1837.84 1616.66,1811.17 1616.5,1784.5C 1616.17,1775.14 1616.5,1765.81 1617.5,1756.5C 1618.86,1757.18 1620.19,1757.85 1621.5,1758.5C 1621.84,1759.34 1622.51,1759.67 1623.5,1759.5C 1624.12,1759.39 1624.62,1759.06 1625,1758.5C 1625.5,1762.49 1625.67,1766.49 1625.5,1770.5C 1625.53,1804.5 1625.2,1838.5 1624.5,1872.5C 1624.5,1875.5 1624.5,1878.5 1624.5,1881.5C 1624.5,1883.5 1624.5,1885.5 1624.5,1887.5C 1623.54,1943.84 1622.54,2000.34 1621.5,2057C 1622.39,2107 1623.39,2156.83 1624.5,2206.5C 1624.17,2213.2 1624.5,2219.87 1625.5,2226.5C 1668.69,2246.76 1713.03,2264.26 1758.5,2279C 1808.23,2292.54 1858.56,2295.21 1909.5,2287C 1960.3,2277.96 2008.96,2262.29 2055.5,2240C 2103.41,2216.83 2149.07,2190.33 2192.5,2160.5C 2235.01,2132.16 2277.68,2104 2320.5,2076C 2371.39,2042.89 2425.39,2015.56 2482.5,1994C 2557.46,1968.72 2634.13,1960.72 2712.5,1970C 2782.93,1978.52 2851.26,1995.36 2917.5,2020.5C 2927.5,2024.17 2937.5,2027.83 2947.5,2031.5C 2976.27,2043.15 3004.94,2055.32 3033.5,2068C 3105.35,2102.26 3177.35,2135.93 3249.5,2169C 3299.73,2191.35 3351.06,2210.85 3403.5,2227.5C 3404.5,2215.52 3404.83,2203.52 3404.5,2191.5C 3407.2,2086.66 3406.87,1982 3403.5,1877.5C 3402.94,1837.5 3402.61,1797.5 3402.5,1757.5C 3405.55,1755.14 3408.88,1753.14 3412.5,1751.5 Z"/></g>
<g><path style="opacity:1" fill="#1c8fe3" d="M 3051.5,1957.5 C 3052.17,1957.5 3052.83,1957.5 3053.5,1957.5C 3068.34,1960.92 3083.34,1963.59 3098.5,1965.5C 3062,1980.56 3025.66,1996.23 2989.5,2012.5C 2989.17,2012.5 2988.83,2012.5 2988.5,2012.5C 2978.5,2008.5 2968.5,2004.5 2958.5,2000.5C 2989.38,1985.89 3020.38,1971.56 3051.5,1957.5 Z"/></g>
<g><path style="opacity:1" fill="#1b7fd5" d="M 3096.5,1937.5 C 3114.27,1940.61 3131.93,1943.61 3149.5,1946.5C 3132.39,1952.56 3115.39,1958.89 3098.5,1965.5C 3083.34,1963.59 3068.34,1960.92 3053.5,1957.5C 3067.94,1951.07 3082.61,1944.9 3097.5,1939C 3096.94,1938.62 3096.61,1938.12 3096.5,1937.5 Z"/></g>
<g><path style="opacity:1" fill="#37c5f8" d="M 1624.5,1887.5 C 1624.5,1894.5 1624.5,1901.5 1624.5,1908.5C 1687.17,1916.34 1747.17,1933.5 1804.5,1960C 1836.42,1974.63 1867.76,1990.29 1898.5,2007C 1956.67,2040.25 2015,2073.25 2073.5,2106C 2100.82,2120.83 2128.82,2134.33 2157.5,2146.5C 2099.39,2185.72 2036.72,2216.22 1969.5,2238C 1917.6,2254.17 1864.6,2259.51 1810.5,2254C 1775.74,2249.08 1742.07,2240.08 1709.5,2227C 1681.07,2215.41 1652.9,2203.25 1625,2190.5C 1624.5,2195.82 1624.33,2201.16 1624.5,2206.5C 1623.39,2156.83 1622.39,2107 1621.5,2057C 1622.54,2000.34 1623.54,1943.84 1624.5,1887.5 Z"/></g>
<g><path style="opacity:1" fill="#1b9bf0" d="M 2813.5,1893.5 C 2891.25,1920.3 2970.58,1941.63 3051.5,1957.5C 3020.38,1971.56 2989.38,1985.89 2958.5,2000.5C 2957.83,2000.5 2957.17,2000.5 2956.5,2000.5C 2886.12,1970.81 2813.12,1949.81 2737.5,1937.5C 2762.55,1922.47 2787.89,1907.8 2813.5,1893.5 Z"/></g>
<g><path style="opacity:1" fill="#37c5f8" d="M 3403.5,1877.5 C 3406.87,1982 3407.2,2086.66 3404.5,2191.5C 3354.37,2176.4 3305.37,2158.23 3257.5,2137C 3186.47,2104.48 3115.8,2071.48 3045.5,2038C 3026.45,2029.95 3007.79,2021.45 2989.5,2012.5C 3025.66,1996.23 3062,1980.56 3098.5,1965.5C 3115.39,1958.89 3132.39,1952.56 3149.5,1946.5C 3231.4,1915.86 3316.07,1897.86 3403.5,1892.5C 3403.5,1887.5 3403.5,1882.5 3403.5,1877.5 Z"/></g>
<g><path style="opacity:1" fill="#1c8fe3" d="M 1631.5,1880.5 C 1650.21,1884.42 1669.21,1888.25 1688.5,1892C 1702.49,1896 1716.49,1900 1730.5,1904C 1786.85,1923.67 1841.19,1948.01 1893.5,1977C 1957.84,2013.84 2022.51,2050.17 2087.5,2086C 2119.01,2102.34 2151.17,2117.17 2184,2130.5C 2224.57,2103.8 2265.07,2076.96 2305.5,2050C 2344.58,2024.45 2385.24,2001.45 2427.5,1981C 2524.6,1935.06 2625.93,1920.9 2731.5,1938.5C 2726.46,1941.01 2721.79,1944.01 2717.5,1947.5C 2724.17,1944.17 2730.83,1940.83 2737.5,1937.5C 2813.12,1949.81 2886.12,1970.81 2956.5,2000.5C 2944.17,2007 2931.5,2013 2918.5,2018.5C 2917.7,2018.96 2917.37,2019.62 2917.5,2020.5C 2851.26,1995.36 2782.93,1978.52 2712.5,1970C 2634.13,1960.72 2557.46,1968.72 2482.5,1994C 2425.39,2015.56 2371.39,2042.89 2320.5,2076C 2277.68,2104 2235.01,2132.16 2192.5,2160.5C 2180.52,2156.68 2168.85,2152.01 2157.5,2146.5C 2128.82,2134.33 2100.82,2120.83 2073.5,2106C 2015,2073.25 1956.67,2040.25 1898.5,2007C 1867.76,1990.29 1836.42,1974.63 1804.5,1960C 1747.17,1933.5 1687.17,1916.34 1624.5,1908.5C 1624.5,1901.5 1624.5,1894.5 1624.5,1887.5C 1624.5,1885.5 1624.5,1883.5 1624.5,1881.5C 1626.95,1881.7 1629.28,1881.37 1631.5,1880.5 Z"/></g>
<g><path style="opacity:1" fill="#34bbf2" d="M 2705.5,1954.5 C 2702.06,1957.8 2698.06,1959.96 2693.5,1961C 2697.16,1958.17 2701.16,1956.01 2705.5,1954.5 Z"/></g>
<g><path style="opacity:1" fill="#42d0f9" d="M 2306.5,1956.5 C 2308.42,1956.79 2310.09,1957.63 2311.5,1959C 2309.33,1959.25 2307.67,1958.42 2306.5,1956.5 Z"/></g>
<g><path style="opacity:1" fill="#46d6fa" d="M 2301.5,1953.5 C 2303.67,1953.75 2305.34,1954.75 2306.5,1956.5C 2304.33,1956.25 2302.66,1955.25 2301.5,1953.5 Z"/></g>
<g><path style="opacity:1" fill="#3ac7f6" d="M 2717.5,1947.5 C 2714.02,1950.62 2710.02,1952.96 2705.5,1954.5C 2708.98,1951.38 2712.98,1949.04 2717.5,1947.5 Z"/></g>
<g><path style="opacity:1" fill="#50e3fc" d="M 2265.5,1931.5 C 2277.84,1938.33 2289.84,1945.67 2301.5,1953.5C 2288.9,1946.89 2276.57,1939.89 2264.5,1932.5C 2264.5,1931.83 2264.83,1931.5 2265.5,1931.5 Z"/></g>
<g><path style="opacity:1" fill="#1774ce" d="M 2844.5,1876.5 C 2926.99,1902.79 3010.99,1923.12 3096.5,1937.5C 3096.61,1938.12 3096.94,1938.62 3097.5,1939C 3082.61,1944.9 3067.94,1951.07 3053.5,1957.5C 3052.83,1957.5 3052.17,1957.5 3051.5,1957.5C 2970.58,1941.63 2891.25,1920.3 2813.5,1893.5C 2823.7,1887.57 2834.03,1881.9 2844.5,1876.5 Z"/></g>
<g><path style="opacity:1" fill="#1d8add" d="M 2956.5,2000.5 C 2957.17,2000.5 2957.83,2000.5 2958.5,2000.5C 2968.5,2004.5 2978.5,2008.5 2988.5,2012.5C 2975.28,2019.61 2961.62,2025.94 2947.5,2031.5C 2937.5,2027.83 2927.5,2024.17 2917.5,2020.5C 2917.37,2019.62 2917.7,2018.96 2918.5,2018.5C 2931.5,2013 2944.17,2007 2956.5,2000.5 Z"/></g>
<g><path style="opacity:1" fill="#28a0e6" d="M 2988.5,2012.5 C 2988.83,2012.5 2989.17,2012.5 2989.5,2012.5C 3007.79,2021.45 3026.45,2029.95 3045.5,2038C 3115.8,2071.48 3186.47,2104.48 3257.5,2137C 3305.37,2158.23 3354.37,2176.4 3404.5,2191.5C 3404.83,2203.52 3404.5,2215.52 3403.5,2227.5C 3351.06,2210.85 3299.73,2191.35 3249.5,2169C 3177.35,2135.93 3105.35,2102.26 3033.5,2068C 3004.94,2055.32 2976.27,2043.15 2947.5,2031.5C 2961.62,2025.94 2975.28,2019.61 2988.5,2012.5 Z"/></g>
<g><path style="opacity:1" fill="#30b7f2" d="M 1251.5,2011.5 C 1251.83,2011.5 1252.17,2011.5 1252.5,2011.5C 1252.17,2094.67 1252.5,2177.67 1253.5,2260.5C 1253.17,2261.5 1252.5,2262.17 1251.5,2262.5C 1251.5,2178.83 1251.5,2095.17 1251.5,2011.5 Z"/></g>
<g><path style="opacity:1" fill="#28a0e6" d="M 1618.5,2187.5 C 1618.72,2199.19 1618.39,2210.86 1617.5,2222.5C 1595.86,2213.19 1573.86,2204.69 1551.5,2197C 1529.12,2188.99 1506.12,2183.66 1482.5,2181C 1448.43,2176.49 1415.43,2180.49 1383.5,2193C 1355.82,2205.37 1330.82,2221.7 1308.5,2242C 1289.33,2260.34 1270.33,2278.84 1251.5,2297.5C 1251.5,2285.83 1251.5,2274.17 1251.5,2262.5C 1252.5,2262.17 1253.17,2261.5 1253.5,2260.5C 1280.15,2232.01 1308.81,2205.85 1339.5,2182C 1361.23,2166.97 1384.9,2155.97 1410.5,2149C 1449.87,2141.74 1488.87,2143.41 1527.5,2154C 1558.57,2163.3 1588.9,2174.46 1618.5,2187.5 Z"/></g>
<g><path style="opacity:1" fill="#28a0e6" d="M 2157.5,2146.5 C 2168.85,2152.01 2180.52,2156.68 2192.5,2160.5C 2149.07,2190.33 2103.41,2216.83 2055.5,2240C 2008.96,2262.29 1960.3,2277.96 1909.5,2287C 1858.56,2295.21 1808.23,2292.54 1758.5,2279C 1713.03,2264.26 1668.69,2246.76 1625.5,2226.5C 1624.5,2219.87 1624.17,2213.2 1624.5,2206.5C 1624.33,2201.16 1624.5,2195.82 1625,2190.5C 1652.9,2203.25 1681.07,2215.41 1709.5,2227C 1742.07,2240.08 1775.74,2249.08 1810.5,2254C 1864.6,2259.51 1917.6,2254.17 1969.5,2238C 2036.72,2216.22 2099.39,2185.72 2157.5,2146.5 Z"/></g>
<g><path style="opacity:1" fill="#28a0e6" d="M 3410.5,2193.5 C 3529.01,2229.28 3648.68,2233.61 3769.5,2206.5C 3769.5,2218.5 3769.5,2230.5 3769.5,2242.5C 3694.56,2258.53 3618.9,2263.03 3542.5,2256C 3497.74,2250.82 3453.74,2241.98 3410.5,2229.5C 3410.5,2217.5 3410.5,2205.5 3410.5,2193.5 Z"/></g>
<g><path style="opacity:1" fill="#79faff" d="M 1943.5,2406.5 C 1938.23,2409.11 1933.23,2412.11 1928.5,2415.5C 1927.83,2415.5 1927.17,2415.5 1926.5,2415.5C 1923.7,2413.6 1920.7,2411.93 1917.5,2410.5C 2042.44,2337.69 2167.78,2265.35 2293.5,2193.5C 2294.7,2193.85 2294.7,2194.35 2293.5,2195C 2176.4,2264.97 2059.73,2335.47 1943.5,2406.5 Z"/></g>
<g><path style="opacity:1" fill="#1d86d9" d="M 3402.5,2348.5 C 3401.83,2359.83 3401.17,2371.17 3400.5,2382.5C 3397.66,2381.38 3395,2381.88 3392.5,2384C 3337.17,2415 3281.83,2446 3226.5,2477C 3224.98,2478.01 3223.31,2478.51 3221.5,2478.5C 3096.03,2409.27 2970.7,2339.77 2845.5,2270C 2928.37,2236.44 3014.53,2218.94 3104,2217.5C 3180.76,2216.31 3252.93,2233.81 3320.5,2270C 3349.77,2287.26 3376.77,2307.59 3401.5,2331C 3402.47,2336.74 3402.81,2342.57 3402.5,2348.5 Z"/></g>
<g><path style="opacity:1" fill="#41e0fe" d="M 2840.5,2272.5 C 2812.43,2282.53 2784.76,2293.7 2757.5,2306C 2696.59,2334.12 2635.92,2362.79 2575.5,2392C 2512.32,2421.76 2447.32,2446.76 2380.5,2467C 2335.92,2479.31 2290.59,2487.65 2244.5,2492C 2170.58,2498.68 2098.91,2489.01 2029.5,2463C 1994.75,2449.29 1961.08,2433.45 1928.5,2415.5C 1933.23,2412.11 1938.23,2409.11 1943.5,2406.5C 1962.95,2415.23 1981.95,2425.06 2000.5,2436C 2013.68,2440.59 2026.34,2446.26 2038.5,2453C 2052.46,2456.99 2065.96,2462.15 2079,2468.5C 2079.56,2467.98 2080.23,2467.64 2081,2467.5C 2087.98,2469.07 2094.65,2471.41 2101,2474.5C 2116.45,2476.06 2131.78,2479.06 2147,2483.5C 2162.21,2482.75 2177.37,2483.75 2192.5,2486.5C 2207.45,2484.95 2222.45,2483.95 2237.5,2483.5C 2239.71,2483.6 2241.88,2483.94 2244,2484.5C 2260.57,2480.89 2277.41,2478.39 2294.5,2477C 2309.18,2473.5 2323.85,2470 2338.5,2466.5C 2339.17,2466.83 2339.83,2467.17 2340.5,2467.5C 2356.24,2462.03 2372.08,2457.03 2388,2452.5C 2388.33,2452.83 2388.67,2453.17 2389,2453.5C 2405.42,2446.47 2422.26,2440.64 2439.5,2436C 2487.64,2416.01 2535.14,2394.84 2582,2372.5C 2582.33,2372.83 2582.67,2373.17 2583,2373.5C 2615.5,2356.16 2648.33,2340.49 2681.5,2326.5C 2728.32,2303.02 2776.48,2282.35 2826,2264.5C 2831.28,2266.55 2836.12,2269.22 2840.5,2272.5 Z"/></g>
<g><path style="opacity:1" fill="#1d86d9" d="M 2840.5,2272.5 C 2965.81,2345.15 3091.14,2417.82 3216.5,2490.5C 3217.83,2548.17 3217.83,2605.83 3216.5,2663.5C 3036.84,2765.99 2857.51,2868.99 2678.5,2972.5C 2622.49,2941.5 2566.49,2910.5 2510.5,2879.5C 2456.55,2908.81 2402.88,2938.64 2349.5,2969C 2347.98,2970.01 2346.31,2970.51 2344.5,2970.5C 2164.33,2865.91 1984,2761.58 1803.5,2657.5C 1803.17,2601.43 1803.5,2545.43 1804.5,2489.5C 1845.45,2465.2 1886.12,2440.53 1926.5,2415.5C 1927.17,2415.5 1927.83,2415.5 1928.5,2415.5C 1961.08,2433.45 1994.75,2449.29 2029.5,2463C 2098.91,2489.01 2170.58,2498.68 2244.5,2492C 2290.59,2487.65 2335.92,2479.31 2380.5,2467C 2447.32,2446.76 2512.32,2421.76 2575.5,2392C 2635.92,2362.79 2696.59,2334.12 2757.5,2306C 2784.76,2293.7 2812.43,2282.53 2840.5,2272.5 Z"/></g>
<g><path style="opacity:1" fill="#40e0fe" d="M 3769.5,2492.5 C 3769.5,2495.17 3769.5,2497.83 3769.5,2500.5C 3732.76,2503.13 3696.1,2502.3 3659.5,2498C 3602.31,2489.4 3551.64,2466.73 3507.5,2430C 3475.43,2402.43 3444.43,2373.6 3414.5,2343.5C 3414.16,2342.66 3413.49,2342.33 3412.5,2342.5C 3412.33,2331.83 3412.5,2321.16 3413,2310.5C 3414.17,2311.89 3415.67,2312.73 3417.5,2313C 3437.12,2330.61 3456.78,2348.28 3476.5,2366C 3501.98,2391.82 3528.31,2416.49 3555.5,2440C 3564.33,2445.25 3572.66,2451.25 3580.5,2458C 3589.56,2461.4 3597.89,2466.07 3605.5,2472C 3619.09,2477.1 3632.75,2481.93 3646.5,2486.5C 3653.57,2486.21 3660.4,2487.55 3667,2490.5C 3668.23,2489.89 3669.56,2489.56 3671,2489.5C 3684.09,2490.51 3697.09,2492.18 3710,2494.5C 3718.31,2493.77 3726.65,2493.1 3735,2492.5C 3746.54,2492.9 3758.04,2492.9 3769.5,2492.5 Z"/></g>
<g><path style="opacity:1" fill="#1d86d9" d="M 1615.5,2385.5 C 1558.17,2417.5 1500.83,2449.5 1443.5,2481.5C 1442.17,2551.33 1442.17,2621.33 1443.5,2691.5C 1503.23,2727.03 1563.23,2762.03 1623.5,2796.5C 1683.3,2761.76 1742.97,2726.76 1802.5,2691.5C 1803.17,2685.35 1803.83,2679.35 1804.5,2673.5C 1980,2775.09 2155.67,2876.42 2331.5,2977.5C 2331.5,2978.17 2331.5,2978.83 2331.5,2979.5C 2330.17,3049.33 2330.17,3119.33 2331.5,3189.5C 2391.03,3224.76 2450.7,3259.76 2510.5,3294.5C 2570.36,3259.65 2630.19,3224.65 2690,3189.5C 2690.17,3119.76 2690.67,3050.1 2691.5,2980.5C 2866.82,2879.53 3042.15,2778.53 3217.5,2677.5C 3217.17,2682.21 3217.51,2686.88 3218.5,2691.5C 3278.03,2726.76 3337.7,2761.76 3397.5,2796.5C 3457.4,2762.19 3517.4,2727.19 3577.5,2691.5C 3578.67,2621.5 3578.83,2551.5 3578,2481.5C 3577.62,2480.94 3577.12,2480.61 3576.5,2480.5C 3521.97,2450.4 3467.64,2420.07 3413.5,2389.5C 3413.5,2386.17 3413.5,2382.83 3413.5,2379.5C 3413.17,2367.32 3413.5,2355.32 3414.5,2343.5C 3444.43,2373.6 3475.43,2402.43 3507.5,2430C 3551.64,2466.73 3602.31,2489.4 3659.5,2498C 3696.1,2502.3 3732.76,2503.13 3769.5,2500.5C 3769.67,2567.5 3769.5,2634.5 3769,2701.5C 3762.94,2754.17 3739.11,2796.67 3697.5,2829C 3680,2839.92 3662.33,2850.58 3644.5,2861C 3294.5,3063 2944.5,3265 2594.5,3467C 2535.51,3495.4 2477.17,3494.07 2419.5,3463C 2061.5,3256.33 1703.5,3049.67 1345.5,2843C 1290.75,2811.2 1259.58,2763.7 1252,2700.5C 1251.5,2617.5 1251.33,2534.5 1251.5,2451.5C 1282.82,2433.17 1314.48,2415.34 1346.5,2398C 1383.82,2378.01 1422.15,2360.34 1461.5,2345C 1511.42,2325.79 1563.09,2314.96 1616.5,2312.5C 1615.91,2336.83 1615.58,2361.16 1615.5,2385.5 Z"/></g>
<g><path style="opacity:1" fill="#1d86d9" d="M 1916.5,2410.5 C 1877.17,2433.17 1837.83,2455.83 1798.5,2478.5C 1741.19,2446.85 1683.86,2415.18 1626.5,2383.5C 1626.5,2359.83 1626.5,2336.17 1626.5,2312.5C 1672.64,2312.68 1717.31,2320.85 1760.5,2337C 1814.16,2358 1866.16,2382.5 1916.5,2410.5 Z"/></g>
<g><path style="opacity:1" fill="#2face9" d="M 3412.5,2342.5 C 3413.49,2342.33 3414.16,2342.66 3414.5,2343.5C 3413.5,2355.32 3413.17,2367.32 3413.5,2379.5C 3412.5,2367.34 3412.17,2355.01 3412.5,2342.5 Z"/></g>
<g><path style="opacity:1" fill="#30abe8" d="M 3402.5,2348.5 C 3402.5,2360.17 3402.5,2371.83 3402.5,2383.5C 3401.51,2383.67 3400.84,2383.34 3400.5,2382.5C 3401.17,2371.17 3401.83,2359.83 3402.5,2348.5 Z"/></g>
<g><path style="opacity:1" fill="#97dffe" d="M 3400.5,2382.5 C 3400.84,2383.34 3401.51,2383.67 3402.5,2383.5C 3405.68,2386.26 3409.34,2388.26 3413.5,2389.5C 3467.64,2420.07 3521.97,2450.4 3576.5,2480.5C 3576.59,2481.5 3576.25,2482.33 3575.5,2483C 3516.64,2518.6 3457.3,2553.43 3397.5,2587.5C 3337.63,2552.4 3277.97,2517.07 3218.5,2481.5C 3219.83,2480.83 3220.83,2479.83 3221.5,2478.5C 3223.31,2478.51 3224.98,2478.01 3226.5,2477C 3281.83,2446 3337.17,2415 3392.5,2384C 3395,2381.88 3397.66,2381.38 3400.5,2382.5 Z"/></g>
<g><path style="opacity:1" fill="#97dffe" d="M 1626.5,2383.5 C 1683.86,2415.18 1741.19,2446.85 1798.5,2478.5C 1799.83,2479.5 1801.17,2480.5 1802.5,2481.5C 1743.12,2517.86 1683.12,2553.19 1622.5,2587.5C 1562.63,2552.4 1502.97,2517.07 1443.5,2481.5C 1500.83,2449.5 1558.17,2417.5 1615.5,2385.5C 1618.07,2384.3 1620.57,2382.97 1623,2381.5C 1624.3,2381.98 1625.47,2382.64 1626.5,2383.5 Z"/></g>
<g><path style="opacity:1" fill="#5beefe" d="M 1916.5,2410.5 C 1916.83,2410.5 1917.17,2410.5 1917.5,2410.5C 1920.7,2411.93 1923.7,2413.6 1926.5,2415.5C 1886.12,2440.53 1845.45,2465.2 1804.5,2489.5C 1803.83,2486.83 1803.17,2484.17 1802.5,2481.5C 1801.17,2480.5 1799.83,2479.5 1798.5,2478.5C 1837.83,2455.83 1877.17,2433.17 1916.5,2410.5 Z"/></g>
<g><path style="opacity:1" fill="#30c0fe" d="M 1443.5,2481.5 C 1502.97,2517.07 1562.63,2552.4 1622.5,2587.5C 1623.5,2657.1 1623.83,2726.76 1623.5,2796.5C 1563.23,2762.03 1503.23,2727.03 1443.5,2691.5C 1442.17,2621.33 1442.17,2551.33 1443.5,2481.5 Z"/></g>
<g><path style="opacity:1" fill="#30c0fe" d="M 3218.5,2481.5 C 3277.97,2517.07 3337.63,2552.4 3397.5,2587.5C 3397.5,2657.17 3397.5,2726.83 3397.5,2796.5C 3337.7,2761.76 3278.03,2726.76 3218.5,2691.5C 3217.51,2686.88 3217.17,2682.21 3217.5,2677.5C 3217.82,2672.64 3217.49,2667.97 3216.5,2663.5C 3217.83,2605.83 3217.83,2548.17 3216.5,2490.5C 3217.17,2487.5 3217.83,2484.5 3218.5,2481.5 Z"/></g>
<g><path style="opacity:1" fill="#6ed3fe" d="M 3576.5,2480.5 C 3577.12,2480.61 3577.62,2480.94 3578,2481.5C 3578.83,2551.5 3578.67,2621.5 3577.5,2691.5C 3517.4,2727.19 3457.4,2762.19 3397.5,2796.5C 3397.5,2726.83 3397.5,2657.17 3397.5,2587.5C 3457.3,2553.43 3516.64,2518.6 3575.5,2483C 3576.25,2482.33 3576.59,2481.5 3576.5,2480.5 Z"/></g>
<g><path style="opacity:1" fill="#6ed3fe" d="M 1802.5,2481.5 C 1803.17,2484.17 1803.83,2486.83 1804.5,2489.5C 1803.5,2545.43 1803.17,2601.43 1803.5,2657.5C 1803.22,2662.93 1803.55,2668.26 1804.5,2673.5C 1803.83,2679.35 1803.17,2685.35 1802.5,2691.5C 1742.97,2726.76 1683.3,2761.76 1623.5,2796.5C 1623.83,2726.76 1623.5,2657.1 1622.5,2587.5C 1683.12,2553.19 1743.12,2517.86 1802.5,2481.5 Z"/></g>
<g><path style="opacity:1" fill="#47e0fe" d="M 1803.5,2657.5 C 1984,2761.58 2164.33,2865.91 2344.5,2970.5C 2344.63,2971.38 2344.3,2972.04 2343.5,2972.5C 2339.76,2974.12 2336.26,2976.12 2333,2978.5C 2332.62,2977.94 2332.12,2977.61 2331.5,2977.5C 2155.67,2876.42 1980,2775.09 1804.5,2673.5C 1803.55,2668.26 1803.22,2662.93 1803.5,2657.5 Z"/></g>
<g><path style="opacity:1" fill="#47e0fe" d="M 3216.5,2663.5 C 3217.49,2667.97 3217.82,2672.64 3217.5,2677.5C 3042.15,2778.53 2866.82,2879.53 2691.5,2980.5C 2691.17,2980.5 2690.83,2980.5 2690.5,2980.5C 2686.84,2977.34 2682.84,2974.67 2678.5,2972.5C 2857.51,2868.99 3036.84,2765.99 3216.5,2663.5 Z"/></g>
<g><path style="opacity:1" fill="#97dffe" d="M 2678.5,2972.5 C 2682.84,2974.67 2686.84,2977.34 2690.5,2980.5C 2630.5,3015.5 2570.5,3050.5 2510.5,3085.5C 2450.63,3050.4 2390.97,3015.07 2331.5,2979.5C 2331.5,2978.83 2331.5,2978.17 2331.5,2977.5C 2332.12,2977.61 2332.62,2977.94 2333,2978.5C 2336.26,2976.12 2339.76,2974.12 2343.5,2972.5C 2344.3,2972.04 2344.63,2971.38 2344.5,2970.5C 2346.31,2970.51 2347.98,2970.01 2349.5,2969C 2402.88,2938.64 2456.55,2908.81 2510.5,2879.5C 2566.49,2910.5 2622.49,2941.5 2678.5,2972.5 Z"/></g>
<g><path style="opacity:1" fill="#30c1fe" d="M 2331.5,2979.5 C 2390.97,3015.07 2450.63,3050.4 2510.5,3085.5C 2510.5,3155.17 2510.5,3224.83 2510.5,3294.5C 2450.7,3259.76 2391.03,3224.76 2331.5,3189.5C 2330.17,3119.33 2330.17,3049.33 2331.5,2979.5 Z"/></g>
<g><path style="opacity:1" fill="#6ed3fe" d="M 2690.5,2980.5 C 2690.83,2980.5 2691.17,2980.5 2691.5,2980.5C 2690.67,3050.1 2690.17,3119.76 2690,3189.5C 2630.19,3224.65 2570.36,3259.65 2510.5,3294.5C 2510.5,3224.83 2510.5,3155.17 2510.5,3085.5C 2570.5,3050.5 2630.5,3015.5 2690.5,2980.5 Z"/></g>
<g><path style="opacity:0.988" fill="#1d85d9" d="M 1801.5,3709.5 C 1865.61,3704.35 1918.78,3725.69 1961,3773.5C 1997.36,3823.3 2008.03,3878.3 1993,3938.5C 1969.39,4012.77 1918.89,4055.27 1841.5,4066C 1779.27,4072.15 1726.77,4052.65 1684,4007.5C 1650.18,3966.24 1636.18,3918.91 1642,3865.5C 1650.8,3800.4 1684.63,3753.57 1743.5,3725C 1762.21,3716.99 1781.54,3711.82 1801.5,3709.5 Z M 1806.5,3787.5 C 1863.32,3783.47 1897.82,3809.14 1910,3864.5C 1915.16,3893.72 1910.83,3921.38 1897,3947.5C 1879.15,3975.18 1853.65,3988.84 1820.5,3988.5C 1771.31,3986.65 1741.47,3961.65 1731,3913.5C 1725.69,3884.6 1729.35,3856.93 1742,3830.5C 1756.73,3805.93 1778.23,3791.6 1806.5,3787.5 Z"/></g>
<g><path style="opacity:0.989" fill="#30c1ff" d="M 3507.5,3709.5 C 3569.9,3704.48 3622.07,3724.82 3664,3770.5C 3695.77,3810.57 3709.11,3856.23 3704,3907.5C 3694.52,3982.97 3654.02,4033.47 3582.5,4059C 3521.38,4076.2 3465.04,4066.54 3413.5,4030C 3364.65,3989.1 3342.48,3936.6 3347,3872.5C 3355.49,3794.68 3396.66,3742.85 3470.5,3717C 3482.8,3713.62 3495.13,3711.12 3507.5,3709.5 Z M 3511.5,3787.5 C 3569.99,3783.48 3604.82,3810.14 3616,3867.5C 3620.51,3896.13 3615.84,3923.13 3602,3948.5C 3578.81,3981.02 3547.31,3993.86 3507.5,3987C 3466.87,3977.37 3443.04,3951.87 3436,3910.5C 3431.41,3882.17 3435.41,3855.17 3448,3829.5C 3462.78,3805.86 3483.95,3791.86 3511.5,3787.5 Z"/></g>
<g><path style="opacity:0.99" fill="#1d85d9" d="M 2562.5,3710.5 C 2603.57,3706.84 2642.24,3714.68 2678.5,3734C 2713.35,3755.18 2735.35,3785.68 2744.5,3825.5C 2712.83,3825.83 2681.16,3825.5 2649.5,3824.5C 2636.29,3803.05 2616.96,3791.55 2591.5,3790C 2544.93,3786.86 2513.43,3807.02 2497,3850.5C 2489.47,3877.26 2489.8,3903.93 2498,3930.5C 2508.7,3960.54 2529.54,3979.37 2560.5,3987C 2582.91,3992.3 2604.91,3990.96 2626.5,3983C 2649.09,3971.91 2664.42,3954.41 2672.5,3930.5C 2636.84,3929.5 2601.17,3929.17 2565.5,3929.5C 2565.5,3908.5 2565.5,3887.5 2565.5,3866.5C 2627.17,3866.5 2688.83,3866.5 2750.5,3866.5C 2764.97,3943.35 2739.3,4002.18 2673.5,4043C 2629.79,4066.05 2583.79,4072.05 2535.5,4061C 2461.06,4040.89 2417.89,3992.73 2406,3916.5C 2399.85,3870.92 2408.18,3828.25 2431,3788.5C 2462.41,3741.87 2506.24,3715.87 2562.5,3710.5 Z"/></g>
<g><path style="opacity:0.987" fill="#30c1ff" d="M 3892.5,3710.5 C 3935.65,3706.46 3975.65,3715.62 4012.5,3738C 4046.19,3761.18 4068.19,3792.68 4078.5,3832.5C 4046.83,3833.83 4015.17,3833.83 3983.5,3832.5C 3968.3,3803.47 3944.13,3788.8 3911,3788.5C 3870.77,3790.11 3843.77,3809.77 3830,3847.5C 3820.64,3879.42 3822.31,3910.76 3835,3941.5C 3859.54,3982.8 3895.04,3996.63 3941.5,3983C 3960.36,3975.41 3974.36,3962.58 3983.5,3944.5C 4015.16,3943.33 4046.83,3943.17 4078.5,3944C 4061.94,4004.23 4023.61,4042.89 3963.5,4060C 3919.06,4070.6 3875.73,4067.26 3833.5,4050C 3773.75,4019.19 3741.58,3970.02 3737,3902.5C 3732.4,3843.27 3751.23,3793.1 3793.5,3752C 3822.34,3728.25 3855.34,3714.41 3892.5,3710.5 Z"/></g>
<g><path style="opacity:0.992" fill="#1d85d9" d="M 585.5,3714.5 C 619.406,3714.17 653.24,3714.5 687,3715.5C 718.798,3795.09 751.132,3874.42 784,3953.5C 815.735,3874.13 847.569,3794.79 879.5,3715.5C 913.16,3714.5 946.827,3714.17 980.5,3714.5C 980.5,3830.83 980.5,3947.17 980.5,4063.5C 951.833,4063.5 923.167,4063.5 894.5,4063.5C 894.667,3995.5 894.5,3927.5 894,3859.5C 868.528,3927.42 843.361,3995.42 818.5,4063.5C 794.925,4063.83 771.425,4063.49 748,4062.5C 722.333,3993.83 696.667,3925.17 671,3856.5C 670.5,3925.5 670.333,3994.5 670.5,4063.5C 642.167,4063.5 613.833,4063.5 585.5,4063.5C 585.5,3947.17 585.5,3830.83 585.5,3714.5 Z"/></g>
<g><path style="opacity:0.986" fill="#1d85d9" d="M 1040.5,3714.5 C 1112.17,3714.5 1183.83,3714.5 1255.5,3714.5C 1255.5,3737.5 1255.5,3760.5 1255.5,3783.5C 1212.5,3783.5 1169.5,3783.5 1126.5,3783.5C 1126.5,3806.5 1126.5,3829.5 1126.5,3852.5C 1164.5,3852.5 1202.5,3852.5 1240.5,3852.5C 1240.5,3874.83 1240.5,3897.17 1240.5,3919.5C 1202.5,3919.5 1164.5,3919.5 1126.5,3919.5C 1126.5,3944.5 1126.5,3969.5 1126.5,3994.5C 1169.5,3994.5 1212.5,3994.5 1255.5,3994.5C 1255.5,4017.5 1255.5,4040.5 1255.5,4063.5C 1183.83,4063.5 1112.17,4063.5 1040.5,4063.5C 1040.5,3947.17 1040.5,3830.83 1040.5,3714.5 Z"/></g>
<g><path style="opacity:0.988" fill="#1d85d9" d="M 1309.5,3714.5 C 1338.17,3714.5 1366.83,3714.5 1395.5,3714.5C 1395.33,3764.5 1395.5,3814.5 1396,3864.5C 1433.83,3814.67 1471.67,3764.83 1509.5,3715C 1543.5,3714.33 1577.5,3714.33 1611.5,3715C 1566.62,3771.92 1521.62,3828.76 1476.5,3885.5C 1523.36,3944.52 1570.02,4003.69 1616.5,4063C 1581.16,4063.83 1545.83,4063.67 1510.5,4062.5C 1472.58,4012.32 1434.41,3962.32 1396,3912.5C 1395.5,3962.83 1395.33,4013.17 1395.5,4063.5C 1366.83,4063.5 1338.17,4063.5 1309.5,4063.5C 1309.5,3947.17 1309.5,3830.83 1309.5,3714.5 Z"/></g>
<g><path style="opacity:0.99" fill="#1d85d9" d="M 2045.5,3714.5 C 2074.17,3714.33 2102.84,3714.5 2131.5,3715C 2178.71,3785.91 2225.54,3857.08 2272,3928.5C 2272.5,3857.17 2272.67,3785.83 2272.5,3714.5C 2301.17,3714.5 2329.83,3714.5 2358.5,3714.5C 2358.5,3830.83 2358.5,3947.17 2358.5,4063.5C 2329.49,4063.83 2300.49,4063.5 2271.5,4062.5C 2225,3992.17 2178.5,3921.83 2132,3851.5C 2131.5,3922.17 2131.33,3992.83 2131.5,4063.5C 2102.83,4063.5 2074.17,4063.5 2045.5,4063.5C 2045.5,3947.17 2045.5,3830.83 2045.5,3714.5 Z"/></g>
<g><path style="opacity:0.99" fill="#30c1ff" d="M 2796.5,3714.5 C 2858.52,3714.03 2920.52,3714.53 2982.5,3716C 3045.24,3726.06 3073.07,3762.56 3066,3825.5C 3058.89,3855.28 3040.72,3874.78 3011.5,3884C 3052.98,3897.15 3074.31,3925.48 3075.5,3969C 3075.45,4010.1 3056.45,4038.44 3018.5,4054C 3004.91,4058.92 2990.91,4061.92 2976.5,4063C 2916.5,4063.5 2856.5,4063.67 2796.5,4063.5C 2796.5,3947.17 2796.5,3830.83 2796.5,3714.5 Z M 2882.5,3783.5 C 2904.84,3783.33 2927.17,3783.5 2949.5,3784C 2974.87,3789.88 2984.71,3805.71 2979,3831.5C 2975.5,3841.67 2968.67,3848.5 2958.5,3852C 2952.97,3853.73 2947.3,3854.73 2941.5,3855C 2921.84,3855.5 2902.17,3855.67 2882.5,3855.5C 2882.5,3831.5 2882.5,3807.5 2882.5,3783.5 Z M 2882.5,3918.5 C 2906.5,3918.33 2930.5,3918.5 2954.5,3919C 2982.83,3925.02 2993.67,3942.19 2987,3970.5C 2979.36,3986.58 2966.53,3994.41 2948.5,3994C 2926.5,3994.5 2904.5,3994.67 2882.5,3994.5C 2882.5,3969.17 2882.5,3943.83 2882.5,3918.5 Z"/></g>
<g><path style="opacity:0.997" fill="#30c1ff" d="M 3124.5,3714.5 C 3152.83,3714.5 3181.17,3714.5 3209.5,3714.5C 3209.5,3808.83 3209.5,3903.17 3209.5,3997.5C 3246.83,3997.5 3284.17,3997.5 3321.5,3997.5C 3321.5,4019.5 3321.5,4041.5 3321.5,4063.5C 3255.83,4063.5 3190.17,4063.5 3124.5,4063.5C 3124.5,3947.17 3124.5,3830.83 3124.5,3714.5 Z"/></g>
<g><path style="opacity:0.989" fill="#30c1ff" d="M 4129.5,3714.5 C 4158.17,3714.5 4186.83,3714.5 4215.5,3714.5C 4215.33,3764.5 4215.5,3814.5 4216,3864.5C 4253.83,3814.67 4291.67,3764.83 4329.5,3715C 4363.5,3714.33 4397.5,3714.33 4431.5,3715C 4386.14,3771.56 4341.14,3828.39 4296.5,3885.5C 4343.07,3944.32 4389.41,4003.32 4435.5,4062.5C 4400.5,4063.83 4365.5,4063.83 4330.5,4062.5C 4292.14,4012.64 4253.97,3962.64 4216,3912.5C 4215.5,3962.83 4215.33,4013.17 4215.5,4063.5C 4186.83,4063.5 4158.17,4063.5 4129.5,4063.5C 4129.5,3947.17 4129.5,3830.83 4129.5,3714.5 Z"/></g>
</svg>
